<svg width="698" height="329" viewBox="0 0 698 329" fill="none" xmlns="http://www.w3.org/2000/svg">
<path d="M550.797 259.523C550.647 259.376 550.527 259.2 550.443 259.005C550.36 258.81 550.314 258.6 550.309 258.386C550.304 258.173 550.34 257.961 550.414 257.761C550.488 257.562 550.6 257.38 550.742 257.226L551.231 256.691C551.651 256.229 552.126 255.83 552.629 255.517C553.133 255.204 553.655 254.983 554.167 254.867C554.678 254.75 555.167 254.74 555.608 254.838C556.048 254.936 556.431 255.139 556.733 255.436L557.915 256.606C558.218 256.903 558.434 257.287 558.553 257.737C558.672 258.188 558.69 258.695 558.607 259.23C558.523 259.766 558.34 260.318 558.068 260.857C557.795 261.396 557.439 261.91 557.019 262.37L556.529 262.906C556.389 263.061 556.22 263.187 556.032 263.275C555.845 263.363 555.642 263.412 555.436 263.418C555.231 263.425 555.026 263.389 554.833 263.313C554.641 263.237 554.465 263.123 554.315 262.976L550.797 259.523Z" fill="#E3D9C6"/>
<path d="M30.5257 323.954L30.5801 326.251C30.5819 326.355 30.5635 326.46 30.5261 326.557C30.4887 326.654 30.4329 326.743 30.3621 326.818C30.2913 326.893 30.2068 326.952 30.1136 326.993C30.0204 327.033 29.9204 327.054 29.8193 327.054H0.760763C0.558995 327.054 0.36551 326.971 0.222839 326.823C0.0801679 326.675 0 326.474 0 326.265V255.971C0 255.762 0.0801679 255.561 0.222839 255.413C0.36551 255.265 0.558995 255.182 0.760763 255.182H2.63551C2.83728 255.182 3.03077 255.265 3.17344 255.413C3.31611 255.561 3.39628 255.762 3.39628 255.971V322.389C3.39628 322.599 3.47644 322.799 3.61912 322.947C3.76179 323.095 3.95527 323.178 4.15704 323.178H29.765C29.9644 323.178 30.1559 323.26 30.2982 323.405C30.4405 323.55 30.5222 323.747 30.5257 323.954Z" fill="#E3D9C6"/>
<path d="M215.267 302.716L215.335 326.11C215.337 326.233 215.315 326.356 215.271 326.47C215.227 326.585 215.161 326.689 215.078 326.777C214.994 326.865 214.895 326.934 214.785 326.982C214.675 327.03 214.558 327.054 214.439 327.054H212.605C211.935 327.054 211.599 326.702 211.599 325.997L211.572 255.816C211.572 255.758 211.584 255.7 211.606 255.646C211.628 255.592 211.66 255.543 211.7 255.502C211.741 255.461 211.789 255.429 211.842 255.408C211.894 255.387 211.951 255.377 212.007 255.379C219.139 255.605 229.369 254.238 235.699 257.07C254.922 265.695 254.121 292.386 234.939 300.391C229.477 302.674 222.169 301.49 216.069 301.843C215.535 301.88 215.267 302.171 215.267 302.716ZM215.376 259.847L215.24 297.079C215.24 297.322 215.333 297.555 215.499 297.727C215.664 297.899 215.889 297.995 216.123 297.995L227.249 298.038C229.722 298.047 232.172 297.553 234.46 296.585C236.748 295.617 238.829 294.194 240.584 292.396C242.338 290.597 243.733 288.46 244.687 286.106C245.642 283.752 246.138 281.226 246.146 278.674V278.477C246.164 273.323 244.198 268.372 240.679 264.715C237.161 261.057 232.379 258.992 227.385 258.973L216.259 258.931C216.025 258.931 215.8 259.027 215.635 259.199C215.469 259.371 215.376 259.604 215.376 259.847Z" fill="#E3D9C6"/>
<path d="M684.35 287.243L677.585 287.229C677.308 287.229 677.042 287.113 676.845 286.907C676.649 286.701 676.539 286.421 676.539 286.13V283.621C676.539 283.515 676.56 283.41 676.599 283.313C676.639 283.215 676.698 283.127 676.771 283.053C676.845 282.979 676.932 282.922 677.028 282.884C677.123 282.846 677.225 282.828 677.327 282.832L683.861 283.029C684.64 283.048 685.03 282.654 685.03 281.846V264.864C685.03 264.281 685.315 263.99 685.886 263.99H688.249C688.82 263.99 689.105 264.286 689.105 264.878V281.24C689.105 281.465 689.149 281.689 689.235 281.896C689.32 282.104 689.446 282.291 689.603 282.446C689.761 282.602 689.947 282.723 690.151 282.801C690.355 282.879 690.573 282.914 690.79 282.903L696.523 282.607C697.102 282.578 697.492 282.851 697.691 283.424C698.244 285.012 698.04 286.148 697.08 286.834C695.599 287.905 691.863 286.891 690.029 286.961C689.782 286.969 689.547 287.077 689.374 287.264C689.202 287.451 689.105 287.701 689.105 287.962V326.336C689.106 326.459 689.082 326.58 689.034 326.693C688.987 326.805 688.918 326.907 688.831 326.99C688.744 327.073 688.642 327.137 688.53 327.178C688.418 327.218 688.299 327.233 688.182 327.224L685.655 326.998C685.238 326.961 685.03 326.726 685.03 326.294V287.948C685.03 287.487 684.803 287.252 684.35 287.243Z" fill="#E3D9C6"/>
<path d="M288.655 274.613C290.564 275.425 292.71 274.572 293.447 272.707C294.184 270.842 293.235 268.671 291.326 267.859C289.417 267.047 287.271 267.901 286.534 269.766C285.797 271.631 286.746 273.801 288.655 274.613Z" fill="#E3D9C6"/>
<path d="M108.856 319.092C93.3558 337.144 64.2566 325.645 66.5389 301.744C68.5494 280.562 92.7309 271.698 107.226 286.397C107.326 286.502 107.382 286.644 107.382 286.791C107.382 286.939 107.326 287.081 107.226 287.186L77.8552 317.626C77.6826 317.805 77.5507 318.021 77.4695 318.26C77.3882 318.498 77.3595 318.753 77.3856 319.004C77.4117 319.256 77.4918 319.498 77.6201 319.713C77.7484 319.928 77.9216 320.111 78.1269 320.247C87.709 326.542 96.5845 325.842 104.754 318.147C106.004 316.964 107.634 316.78 108.802 317.922C108.955 318.072 109.046 318.277 109.056 318.495C109.066 318.713 108.995 318.927 108.856 319.092ZM75.4235 315.202L101.629 288.046C101.741 287.932 101.826 287.792 101.876 287.638C101.927 287.484 101.942 287.319 101.921 287.157C101.9 286.995 101.843 286.839 101.755 286.702C101.667 286.566 101.549 286.451 101.412 286.369C84.4848 276.067 66.6611 290.512 71.4295 310.115C71.9547 312.294 72.7608 313.981 73.8476 315.174C74.3638 315.747 74.8891 315.756 75.4235 315.202Z" fill="#E3D9C6"/>
<path d="M343.281 323.616C322.632 307.776 335.837 276.336 360.697 279.154C366.566 279.821 371.674 282.907 376.021 288.413C376.474 288.977 376.37 289.385 375.709 289.639L373.576 290.456C373.096 290.644 372.675 290.55 372.313 290.174C356.35 273.461 330.253 289.921 338.812 311.229C344.585 325.617 361.961 328.633 372.177 317.077C372.33 316.902 372.53 316.778 372.75 316.72C372.97 316.663 373.201 316.674 373.413 316.753L376.008 317.726C376.122 317.77 376.224 317.842 376.305 317.936C376.386 318.03 376.443 318.143 376.471 318.265C376.499 318.386 376.498 318.513 376.467 318.633C376.436 318.753 376.376 318.862 376.293 318.952C367.001 329.056 354.353 332.114 343.281 323.616Z" fill="#E3D9C6"/>
<path d="M606.655 317.64C605.613 318.711 605.722 319.637 606.981 320.416C616.853 326.504 625.765 325.401 633.717 317.105C634.097 316.71 634.532 316.616 635.021 316.823L637.289 317.795C637.878 318.039 637.969 318.411 637.561 318.909C624.75 334.805 600.093 329.802 595.407 309.452C589.877 285.453 619.398 267.978 635.741 286.397C636.067 286.763 636.062 287.125 635.727 287.482L606.655 317.64ZM603.517 315.301L630.035 287.693C630.05 287.679 630.062 287.661 630.07 287.642C630.078 287.623 630.082 287.602 630.082 287.581C630.082 287.56 630.078 287.539 630.07 287.519C630.062 287.5 630.05 287.482 630.035 287.468L630.008 287.44C628.473 285.854 626.612 284.64 624.531 283.866C622.449 283.092 620.189 282.774 617.878 282.93C615.567 283.086 613.25 283.712 611.061 284.774C608.872 285.835 606.853 287.311 605.12 289.117L604.794 289.455C601.293 293.1 599.166 297.868 598.881 302.71C598.596 307.551 600.175 312.07 603.272 315.273L603.3 315.301C603.313 315.316 603.33 315.328 603.349 315.337C603.368 315.345 603.388 315.349 603.408 315.349C603.428 315.349 603.449 315.345 603.467 315.337C603.486 315.328 603.503 315.316 603.517 315.301Z" fill="#E3D9C6"/>
<path d="M422.127 289.145C425.134 285.528 428.856 283.076 433.294 281.789C433.414 281.753 433.541 281.744 433.665 281.761C433.789 281.779 433.909 281.823 434.016 281.89C434.123 281.958 434.215 282.047 434.287 282.154C434.36 282.26 434.41 282.38 434.435 282.508L434.788 284.439C434.915 285.068 434.689 285.495 434.109 285.721C417.494 292.302 420.782 311.243 421.108 325.533C421.121 325.996 420.986 326.451 420.725 326.828C420.464 327.204 420.09 327.481 419.662 327.616C419.234 327.75 418.776 327.735 418.357 327.573C417.938 327.41 417.583 327.109 417.345 326.716C416.928 326.04 416.743 324.974 416.788 323.517C417.25 310.233 417.34 296.943 417.06 283.649C417.051 283.067 417.322 282.794 417.875 282.832L420.171 283.001C420.439 283.023 420.688 283.153 420.863 283.364C421.039 283.576 421.127 283.85 421.108 284.128L420.796 288.582C420.787 288.746 420.828 288.908 420.912 289.047C420.997 289.186 421.121 289.293 421.268 289.355C421.414 289.417 421.576 289.431 421.73 289.393C421.884 289.355 422.022 289.269 422.127 289.145Z" fill="#E3D9C6"/>
<path d="M291.183 282.733H289.227C288.732 282.733 288.33 283.15 288.33 283.664V326.11C288.33 326.624 288.732 327.041 289.227 327.041H291.183C291.678 327.041 292.08 326.624 292.08 326.11V283.664C292.08 283.15 291.678 282.733 291.183 282.733Z" fill="#E3D9C6"/>
<path d="M506.41 319.121C497.878 333.636 474.906 329.042 474.321 311.06C474.023 301.984 473.986 292.89 474.213 283.777C474.222 283.091 474.557 282.767 475.218 282.804L476.631 282.889C477.229 282.927 477.528 283.255 477.528 283.875C477.487 292.416 475.694 309.933 479.497 317.176C484.021 325.787 498.775 326.407 503.298 317.176C506.776 310.074 505.092 292.162 504.956 283.847C504.947 283.274 505.219 282.95 505.771 282.875L507.388 282.664C508.031 282.579 508.37 282.875 508.406 283.551C508.828 292.303 510.73 311.765 506.41 319.121Z" fill="#E3D9C6"/>
<path d="M412.95 19.6635C413.096 19.8498 413.278 20.0025 413.484 20.1117C413.689 20.221 413.915 20.2843 414.146 20.2976C433.147 21.6411 447.873 30.5476 458.325 47.0172C461.685 52.3066 462.794 58.0282 461.653 64.182C461.572 64.6142 461.707 64.9665 462.061 65.2389C471.896 72.7456 478.336 83.4842 481.379 97.4546C484.395 111.364 483.607 130.586 475.469 142.706C472.576 147.004 467.712 147.131 462.917 146.736C451.491 145.806 441.642 137.731 436.249 127.486C436.023 127.054 435.669 126.838 435.189 126.838C427.871 126.791 421.473 124.329 415.994 119.453C415.631 119.134 415.274 119.138 414.92 119.467C399.868 133.56 390.291 135.956 370.185 133.659C369.967 133.632 369.748 133.653 369.542 133.721C369.335 133.789 369.147 133.903 368.989 134.053C354.698 147.258 336.154 142.142 322.732 131.545C322.466 131.334 322.152 131.197 321.821 131.147C321.491 131.098 321.154 131.138 320.843 131.263C303.935 138.168 287.324 137.506 271.013 129.276C270.633 129.078 270.23 129.031 269.804 129.135C257.741 132.292 246.275 137.534 234.619 142.015C217.339 148.653 214.024 132.94 215.219 119.397C216.433 105.577 220.318 92.7007 226.875 80.769C227.763 79.1624 228.279 77.3821 228.424 75.4279C230.285 51.0477 248.299 41.4788 269.043 36.8846C269.496 36.7813 269.809 36.5088 269.981 36.0672C278.757 13.9559 297.178 5.37355 318.724 2.44228C338.35 -0.225916 358.728 0.196853 379.857 3.71061C391.975 5.71176 405.193 9.71407 412.95 19.6635ZM321.794 6.79689C306.321 8.14978 286.555 14.1814 278.05 29.7538C277.934 29.9604 277.89 30.2024 277.924 30.4405C277.959 30.6786 278.07 30.8985 278.241 31.0644C304.446 55.9378 327.84 90.4647 326.644 128.444C326.626 128.876 326.789 129.224 327.133 129.487C335.112 135.528 343.635 138.253 352.701 137.661C356.613 137.407 355.146 133.208 355.676 130.755C358.302 118.899 361.499 108.602 365.267 99.8645C377.167 72.2899 390.485 45.4952 405.221 19.4802C405.422 19.1215 405.487 18.6984 405.404 18.2943C405.321 17.8901 405.096 17.534 404.772 17.2959C402.725 15.7645 400.375 14.4868 397.722 13.4627C373.893 4.27431 346.764 4.61254 321.794 6.79689ZM407.449 21.6223C391.509 49.2344 377.665 77.7156 365.919 107.066C362.731 115.023 360.132 123.686 358.121 133.053C357.677 135.101 358.393 135.716 360.267 134.899C362.622 133.875 364.701 132.512 366.503 130.812C366.865 130.474 367.028 130.046 366.992 129.529C366.63 123.996 366.96 119.157 367.984 115.014C375.768 83.4889 393.66 53.1052 410.886 24.6241C410.947 24.525 410.972 24.4062 410.957 24.288C410.942 24.1697 410.888 24.0594 410.804 23.9758L408.318 21.4955C408.258 21.4355 408.186 21.3907 408.106 21.3642C408.027 21.3377 407.942 21.3303 407.859 21.3424C407.776 21.3546 407.696 21.3861 407.624 21.4345C407.553 21.4829 407.493 21.5471 407.449 21.6223ZM414.037 25.1314C399.039 48.666 386.392 73.1684 376.094 98.6384C373.323 105.487 367.97 120.989 369.913 128.529C370.04 129.017 370.339 129.313 370.81 129.417C378.363 130.995 396.825 132.08 401.199 123.371C414.2 97.4969 434.714 75.9775 456.355 58.0376C456.898 57.5902 457.283 56.9678 457.448 56.2687C457.612 55.5695 457.548 54.8334 457.265 54.1763C449.82 36.9551 432.785 25.681 414.825 24.7227C414.49 24.7039 414.228 24.8401 414.037 25.1314ZM276.189 33.601L273.554 38.463C273.291 38.9609 273.341 39.4213 273.703 39.8441C294.869 64.6189 314.744 93.0155 322.623 125.372C322.649 125.508 322.723 125.627 322.83 125.707C322.937 125.786 323.07 125.821 323.203 125.803C323.335 125.786 323.458 125.717 323.546 125.611C323.635 125.506 323.684 125.37 323.683 125.231C324.022 90.1406 301.077 56.2478 276.76 33.5024C276.72 33.4642 276.672 33.4362 276.619 33.4203C276.567 33.4044 276.511 33.401 276.457 33.4104C276.402 33.4199 276.35 33.4419 276.304 33.4748C276.257 33.5078 276.218 33.5509 276.189 33.601ZM270.443 41.3379C254.698 43.3954 238.273 51.5409 233.45 68.8748C233.025 70.4062 232.957 72.041 233.247 73.779C233.319 74.23 233.559 74.5447 233.967 74.7233C255.119 84.2499 271.462 101.556 275.184 125.781C275.265 126.298 275.537 126.664 275.999 126.88C289.974 133.147 304.002 133.419 318.086 127.697C318.666 127.462 319.142 127.014 319.423 126.439C319.704 125.864 319.769 125.203 319.607 124.583C311.687 93.706 292.912 66.2395 271.53 41.7606C271.24 41.4224 270.877 41.2815 270.443 41.3379ZM456.708 61.5326C436.765 78.1759 418.67 97.1164 406.131 120.44C406.068 120.541 406.044 120.664 406.064 120.782C406.084 120.901 406.147 121.008 406.24 121.081C406.332 121.154 406.448 121.188 406.564 121.176C406.68 121.164 406.787 121.108 406.864 121.017C409.812 118.016 412.624 115.874 414.227 111.604C416.972 104.36 423.452 96.8064 428.75 91.3948C437.444 82.5071 446.542 74.0985 456.042 66.1691C457.338 65.0792 457.804 63.623 457.442 61.8003C457.342 61.3024 457.098 61.2131 456.708 61.5326ZM457.469 68.903C443.082 80.4026 424.81 96.1158 416.714 113.182C416.603 113.421 416.565 113.69 416.607 113.952C416.648 114.215 416.766 114.457 416.945 114.648C421.889 119.82 426.536 121.75 433.478 122.145C440.814 122.568 440.46 127.683 444.196 131.953C445.555 133.494 446.931 134.894 448.326 136.153C448.652 136.445 449.066 136.608 449.496 136.613C449.926 136.618 450.345 136.465 450.676 136.181C460.657 127.65 469.831 118.26 478.2 108.01C478.408 107.756 478.503 107.465 478.485 107.136C477.797 91.4653 471.688 78.735 460.159 68.9453C459.779 68.6248 459.306 68.4463 458.818 68.4386C458.33 68.431 457.854 68.5946 457.469 68.903ZM271.475 122.342C266.748 101.499 252.116 85.9269 233.464 77.6263C233.38 77.5868 233.285 77.5754 233.194 77.5938C233.103 77.6122 233.02 77.6594 232.956 77.729C232.892 77.7986 232.85 77.8871 232.836 77.9823C232.823 78.0774 232.838 78.1747 232.88 78.2605C233.17 78.9182 233.654 79.4443 234.334 79.8389C251.125 89.8352 263.455 104.022 271.326 122.399C271.336 122.415 271.351 122.427 271.368 122.433C271.386 122.439 271.405 122.439 271.422 122.432C271.44 122.426 271.454 122.413 271.464 122.397C271.474 122.381 271.478 122.361 271.475 122.342ZM230.747 82.5728C225.014 92.9826 221.265 104.135 219.499 116.029C219.433 116.458 219.487 116.898 219.652 117.297C219.818 117.696 220.09 118.038 220.436 118.284C226.912 122.859 231.259 129.027 233.478 136.787C233.506 136.893 233.556 136.992 233.624 137.077C233.691 137.162 233.775 137.232 233.871 137.283C233.967 137.333 234.071 137.362 234.179 137.369C234.287 137.376 234.395 137.36 234.497 137.323L267.875 124.667C267.996 124.621 268.106 124.55 268.198 124.458C268.291 124.365 268.365 124.254 268.414 124.131C268.464 124.009 268.489 123.876 268.487 123.743C268.486 123.61 268.458 123.478 268.405 123.357C260.897 105.422 248.906 91.6626 232.432 82.0796C232.147 81.914 231.811 81.873 231.495 81.9654C231.18 82.0578 230.911 82.2761 230.747 82.5728ZM471.747 119.679C465.688 126.236 459.348 132.371 452.728 138.084C452.648 138.154 452.585 138.244 452.546 138.345C452.507 138.446 452.492 138.555 452.503 138.663C452.513 138.77 452.549 138.872 452.608 138.961C452.666 139.049 452.744 139.12 452.836 139.169C457.306 141.607 465.389 144.059 470.089 141.846C476.203 138.957 478.662 119.946 478.798 113.577C478.801 113.467 478.775 113.358 478.722 113.264C478.668 113.169 478.59 113.092 478.496 113.041C478.402 112.991 478.296 112.97 478.191 112.98C478.085 112.99 477.985 113.03 477.901 113.097C475.469 114.986 473.255 118.044 471.747 119.679ZM220.558 121.99C219.761 121.37 219.331 121.572 219.268 122.596C218.833 129.515 219.648 141.17 229.633 138.788C229.792 138.749 229.942 138.677 230.074 138.576C230.206 138.476 230.317 138.349 230.4 138.203C230.484 138.057 230.538 137.895 230.561 137.727C230.583 137.559 230.572 137.388 230.53 137.224C228.881 130.929 225.558 125.851 220.558 121.99Z" fill="#E3D9C6"/>
</svg>
