<svg width="96" height="40" viewBox="0 0 96 40" fill="none" xmlns="http://www.w3.org/2000/svg">
<path d="M57.8237 2.66581C57.8435 2.69043 57.8681 2.71061 57.8961 2.72504C57.9241 2.73947 57.9547 2.74784 57.9861 2.7496C60.5676 2.92712 62.5684 4.10394 63.9883 6.28008C64.4448 6.97898 64.5956 7.73498 64.4405 8.54808C64.4295 8.60518 64.4479 8.65174 64.4959 8.68774C65.8322 9.6796 66.7071 11.0985 67.1205 12.9444C67.5302 14.7823 67.4232 17.3221 66.3176 18.9235C65.9245 19.4915 65.2637 19.5082 64.6122 19.4561C63.06 19.3332 61.7218 18.2662 60.9891 16.9125C60.9583 16.8554 60.9103 16.8268 60.8451 16.8268C59.8509 16.8206 58.9816 16.4954 58.2371 15.8511C58.1879 15.8089 58.1393 15.8095 58.0913 15.853C56.0463 17.715 54.7451 18.0316 52.0134 17.7281C51.9839 17.7245 51.9541 17.7274 51.9261 17.7364C51.898 17.7454 51.8724 17.7603 51.851 17.7802C49.9093 19.525 47.3899 18.849 45.5664 17.4488C45.5302 17.4209 45.4876 17.4028 45.4427 17.3963C45.3978 17.3898 45.352 17.395 45.3098 17.4115C43.0125 18.3239 40.7559 18.2364 38.5398 17.149C38.4881 17.1229 38.4333 17.1167 38.3755 17.1304C36.7365 17.5475 35.1788 18.2401 33.5951 18.8323C31.2474 19.7093 30.7971 17.6331 30.9595 15.8437C31.1244 14.0176 31.6522 12.3163 32.5431 10.7397C32.6637 10.5275 32.7338 10.2922 32.7535 10.034C33.0064 6.81263 35.4538 5.54829 38.2722 4.94125C38.3337 4.9276 38.3761 4.8916 38.3995 4.83325C39.5918 1.91167 42.0946 0.777668 45.0219 0.390358C47.6883 0.0378059 50.4569 0.0936668 53.3276 0.557943C54.9739 0.822356 56.7698 1.35119 57.8237 2.66581ZM45.439 0.965736C43.3368 1.14449 40.6513 1.94146 39.4959 3.99905C39.4801 4.02635 39.474 4.05833 39.4787 4.08979C39.4834 4.12124 39.4986 4.1503 39.5217 4.17222C43.0821 7.45877 46.2604 12.0208 46.0979 17.0391C46.0955 17.0962 46.1176 17.1421 46.1644 17.1769C47.2484 17.9751 48.4063 18.3351 49.638 18.2569C50.1696 18.2234 49.9702 17.6685 50.0422 17.3445C50.399 15.7779 50.8334 14.4173 51.3453 13.2628C52.9621 9.61939 54.7715 6.07898 56.7735 2.6416C56.8008 2.59419 56.8097 2.5383 56.7984 2.48489C56.7872 2.43149 56.7565 2.38444 56.7126 2.35298C56.4345 2.15063 56.1152 1.9818 55.7547 1.84649C52.5173 0.632425 48.8314 0.677116 45.439 0.965736ZM57.0762 2.92463C54.9106 6.57305 53.0298 10.3363 51.4339 14.2144C51.0007 15.2658 50.6476 16.4104 50.3744 17.648C50.3141 17.9186 50.4113 17.9999 50.6661 17.8919C50.986 17.7566 51.2684 17.5766 51.5132 17.3519C51.5624 17.3073 51.5846 17.2508 51.5797 17.1825C51.5305 16.4513 51.5754 15.812 51.7144 15.2646C52.772 11.0991 55.2028 7.0845 57.5431 3.32125C57.5515 3.30817 57.5549 3.29247 57.5529 3.27685C57.5509 3.26122 57.5435 3.24664 57.5321 3.2356L57.1943 2.90788C57.1862 2.89995 57.1763 2.89403 57.1656 2.89053C57.1548 2.88703 57.1433 2.88604 57.132 2.88765C57.1206 2.88926 57.1097 2.89342 57.1001 2.89981C57.0904 2.90621 57.0823 2.9147 57.0762 2.92463ZM57.9714 3.38829C55.9337 6.49794 54.2153 9.73546 52.8163 13.1008C52.4398 14.0058 51.7126 16.0541 51.9765 17.0503C51.9937 17.1148 52.0343 17.1539 52.0983 17.1676C53.1245 17.3762 55.6328 17.5195 56.2272 16.3688C57.9935 12.95 60.7805 10.1066 63.7207 7.73622C63.7945 7.6771 63.8468 7.59486 63.8692 7.50249C63.8916 7.41011 63.8828 7.31284 63.8444 7.22601C62.8329 4.95057 60.5184 3.46091 58.0784 3.33429C58.0329 3.33181 57.9972 3.34981 57.9714 3.38829ZM39.243 4.50739L38.8849 5.14981C38.8492 5.2156 38.856 5.27642 38.9052 5.33229C41.7808 8.6058 44.4811 12.3579 45.5516 16.6332C45.5552 16.6511 45.5652 16.6669 45.5797 16.6774C45.5943 16.6879 45.6123 16.6925 45.6303 16.6901C45.6483 16.6878 45.665 16.6788 45.677 16.6648C45.6891 16.6508 45.6957 16.6329 45.6956 16.6146C45.7417 11.978 42.6243 7.49974 39.3205 4.49436C39.3151 4.48931 39.3086 4.48561 39.3014 4.48351C39.2943 4.4814 39.2868 4.48096 39.2794 4.48221C39.2719 4.48345 39.2648 4.48636 39.2585 4.49072C39.2523 4.49507 39.2469 4.50077 39.243 4.50739ZM38.4623 5.52967C36.3231 5.80153 34.0916 6.87781 33.4364 9.16815C33.3786 9.37049 33.3694 9.58649 33.4087 9.81615C33.4186 9.87574 33.4512 9.91732 33.5066 9.94091C36.3803 11.1997 38.6007 13.4863 39.1064 16.6872C39.1175 16.7555 39.1544 16.8039 39.2172 16.8324C41.1158 17.6604 43.0218 17.6964 44.9351 16.9404C45.014 16.9093 45.0786 16.8501 45.1168 16.7742C45.1549 16.6982 45.1639 16.6109 45.1419 16.5289C44.0658 12.4491 41.5151 8.81994 38.6099 5.58553C38.5705 5.54084 38.5213 5.52222 38.4623 5.52967ZM63.7687 8.19801C61.0592 10.3971 58.6007 12.8997 56.8972 15.9815C56.8886 15.9949 56.8853 16.011 56.8881 16.0268C56.8908 16.0425 56.8993 16.0566 56.9119 16.0662C56.9245 16.0759 56.9403 16.0803 56.956 16.0788C56.9717 16.0772 56.9863 16.0697 56.9968 16.0578C57.3973 15.6612 57.7794 15.3782 57.9972 14.8139C58.37 13.8568 59.2504 12.8588 59.9702 12.1437C61.1515 10.9694 62.3875 9.85836 63.6783 8.81063C63.8542 8.66663 63.9176 8.47422 63.8684 8.23339C63.8548 8.1676 63.8216 8.1558 63.7687 8.19801ZM63.8721 9.17188C61.9175 10.6913 59.435 12.7675 58.335 15.0225C58.3199 15.0541 58.3148 15.0897 58.3204 15.1243C58.326 15.1589 58.3421 15.191 58.3663 15.2161C59.0382 15.8995 59.6694 16.1546 60.6126 16.2068C61.6092 16.2626 61.5612 16.9386 62.0688 17.5028C62.2534 17.7064 62.4404 17.8913 62.6299 18.0577C62.6741 18.0963 62.7304 18.1178 62.7889 18.1185C62.8473 18.1192 62.9041 18.0989 62.9492 18.0614C64.3052 16.9342 65.5517 15.6935 66.6886 14.3391C66.7169 14.3056 66.7298 14.2671 66.7274 14.2237C66.6339 12.153 65.8039 10.471 64.2375 9.17746C64.1859 9.13512 64.1217 9.11153 64.0553 9.11051C63.989 9.1095 63.9244 9.13112 63.8721 9.17188ZM38.6025 16.2328C37.9602 13.4788 35.9724 11.4213 33.4383 10.3245C33.4268 10.3193 33.414 10.3178 33.4016 10.3202C33.3892 10.3226 33.3779 10.3289 33.3692 10.3381C33.3605 10.3473 33.3548 10.3589 33.353 10.3715C33.3511 10.3841 33.3532 10.3969 33.3589 10.4083C33.3983 10.4952 33.4641 10.5647 33.5564 10.6168C35.8377 11.9377 37.513 13.8121 38.5822 16.2403C38.5836 16.2424 38.5856 16.244 38.588 16.2448C38.5904 16.2456 38.593 16.2456 38.5953 16.2447C38.5977 16.2439 38.5997 16.2422 38.601 16.2401C38.6023 16.2379 38.6029 16.2354 38.6025 16.2328ZM33.0691 10.9781C32.2902 12.3535 31.7808 13.827 31.5409 15.3986C31.532 15.4554 31.5392 15.5135 31.5618 15.5662C31.5843 15.6189 31.6212 15.6641 31.6682 15.6966C32.548 16.3011 33.1386 17.1161 33.4401 18.1415C33.444 18.1555 33.4507 18.1685 33.4599 18.1798C33.4691 18.1911 33.4806 18.2003 33.4936 18.2069C33.5065 18.2136 33.5208 18.2175 33.5354 18.2184C33.55 18.2193 33.5647 18.2172 33.5785 18.2122L38.1134 16.5401C38.1298 16.534 38.1447 16.5245 38.1573 16.5124C38.17 16.5002 38.1799 16.4855 38.1867 16.4693C38.1934 16.453 38.1968 16.4356 38.1966 16.418C38.1964 16.4003 38.1926 16.383 38.1854 16.3669C37.1654 13.9971 35.5362 12.1791 33.298 10.9129C33.2594 10.891 33.2136 10.8856 33.1708 10.8978C33.1279 10.91 33.0914 10.9389 33.0691 10.9781ZM65.8119 15.8809C64.9887 16.7474 64.1274 17.558 63.2279 18.3128C63.217 18.3221 63.2086 18.334 63.2032 18.3473C63.1979 18.3607 63.1959 18.3751 63.1973 18.3893C63.1988 18.4035 63.2037 18.417 63.2116 18.4287C63.2195 18.4403 63.2302 18.4498 63.2427 18.4562C63.8499 18.7783 64.9481 19.1023 65.5867 18.8099C66.4173 18.4282 66.7514 15.9163 66.7698 15.0746C66.7704 15.0601 66.7668 15.0458 66.7595 15.0333C66.7523 15.0207 66.7416 15.0106 66.7288 15.0039C66.7161 14.9973 66.7017 14.9944 66.6874 14.9958C66.673 14.9971 66.6594 15.0025 66.648 15.0113C66.3176 15.2608 66.0168 15.6649 65.8119 15.8809ZM31.6848 16.1863C31.5766 16.1044 31.5181 16.131 31.5095 16.2664C31.4504 17.1806 31.5612 18.7206 32.9178 18.4059C32.9394 18.4007 32.9598 18.3911 32.9777 18.3779C32.9956 18.3646 33.0106 18.3478 33.022 18.3285C33.0334 18.3092 33.0408 18.2879 33.0438 18.2656C33.0468 18.2434 33.0454 18.2208 33.0396 18.1992C32.8156 17.3675 32.3641 16.6965 31.6848 16.1863Z" fill="#E3D9C6"/>
<path d="M75.6991 30.3193C75.6788 30.2999 75.6625 30.2766 75.6511 30.2508C75.6398 30.225 75.6336 30.1973 75.6329 30.1691C75.6322 30.1408 75.637 30.1128 75.6471 30.0865C75.6572 30.0602 75.6724 30.0361 75.6917 30.0157L75.7582 29.945C75.8151 29.884 75.8797 29.8313 75.9481 29.79C76.0165 29.7486 76.0875 29.7194 76.157 29.704C76.2264 29.6886 76.293 29.6873 76.3528 29.7002C76.4126 29.7131 76.4646 29.74 76.5057 29.7793L76.6663 29.9338C76.7073 29.973 76.7368 30.0238 76.7529 30.0833C76.769 30.1428 76.7715 30.2098 76.7602 30.2805C76.7489 30.3513 76.724 30.4243 76.687 30.4955C76.65 30.5667 76.6015 30.6346 76.5444 30.6954L76.478 30.7662C76.4589 30.7868 76.4359 30.8034 76.4104 30.815C76.385 30.8266 76.3574 30.8331 76.3295 30.8339C76.3015 30.8348 76.2737 30.8301 76.2475 30.82C76.2214 30.81 76.1975 30.7949 76.1771 30.7755L75.6991 30.3193Z" fill="#E3D9C6"/>
<path d="M5.01058 38.831L5.01796 39.1346C5.01821 39.1484 5.01571 39.1622 5.01063 39.175C5.00554 39.1879 4.99797 39.1996 4.98834 39.2095C4.97872 39.2194 4.96724 39.2272 4.95458 39.2326C4.94192 39.2379 4.92833 39.2407 4.9146 39.2407H0.96664C0.939228 39.2407 0.91294 39.2297 0.893557 39.2101C0.874173 39.1906 0.863281 39.1641 0.863281 39.1364V29.8484C0.863281 29.8208 0.874173 29.7942 0.893557 29.7747C0.91294 29.7551 0.939228 29.7441 0.96664 29.7441H1.22135C1.24876 29.7441 1.27505 29.7551 1.29443 29.7747C1.31382 29.7942 1.32471 29.8208 1.32471 29.8484V38.6243C1.32471 38.652 1.3356 38.6785 1.35498 38.6981C1.37437 38.7176 1.40065 38.7286 1.42807 38.7286H4.90722C4.93431 38.7286 4.96033 38.7393 4.97966 38.7585C4.99899 38.7777 5.01009 38.8037 5.01058 38.831Z" fill="#E3D9C6"/>
<path d="M30.1114 36.0246L30.1206 39.1157C30.1209 39.132 30.1179 39.1481 30.1119 39.1633C30.1059 39.1784 30.097 39.1922 30.0856 39.2038C30.0743 39.2154 30.0608 39.2246 30.0459 39.2309C30.031 39.2372 30.015 39.2404 29.9988 39.2404H29.7497C29.6586 39.2404 29.6131 39.1939 29.6131 39.1008L29.6094 29.8277C29.6094 29.8199 29.6109 29.8123 29.6139 29.8051C29.6169 29.798 29.6213 29.7916 29.6268 29.7862C29.6323 29.7808 29.6388 29.7766 29.646 29.7738C29.6531 29.771 29.6608 29.7697 29.6684 29.7699C30.6374 29.7997 32.0272 29.6191 32.8873 29.9934C35.499 31.133 35.3901 34.6597 32.784 35.7174C32.042 36.019 31.049 35.8626 30.2203 35.9092C30.1477 35.9141 30.1114 35.9526 30.1114 36.0246ZM30.1262 30.3602L30.1077 35.2798C30.1077 35.3119 30.1204 35.3427 30.1429 35.3654C30.1654 35.3881 30.1959 35.4008 30.2277 35.4008L31.7393 35.4064C32.0753 35.4076 32.4082 35.3424 32.719 35.2145C33.0298 35.0866 33.3125 34.8985 33.5509 34.6609C33.7893 34.4234 33.9788 34.141 34.1085 33.8299C34.2381 33.5188 34.3055 33.1851 34.3067 32.8479V32.8219C34.3091 32.1408 34.042 31.4867 33.5639 31.0034C33.0859 30.5201 32.4362 30.2472 31.7578 30.2448L30.2461 30.2392C30.2143 30.2392 30.1838 30.2519 30.1613 30.2746C30.1388 30.2973 30.1262 30.3281 30.1262 30.3602Z" fill="#E3D9C6"/>
<path d="M93.8425 33.9806L92.9234 33.9788C92.8857 33.9788 92.8495 33.9635 92.8229 33.9362C92.7962 33.909 92.7813 33.872 92.7813 33.8335V33.5021C92.7812 33.4881 92.784 33.4742 92.7895 33.4613C92.7949 33.4484 92.8028 33.4367 92.8128 33.427C92.8228 33.4172 92.8346 33.4096 92.8476 33.4046C92.8606 33.3996 92.8744 33.3973 92.8883 33.3978L93.7761 33.4239C93.8819 33.4263 93.9348 33.3742 93.9348 33.2674V31.0237C93.9348 30.9467 93.9736 30.9082 94.0511 30.9082H94.3722C94.4498 30.9082 94.4885 30.9473 94.4885 31.0255V33.1874C94.4885 33.2172 94.4945 33.2467 94.5061 33.2741C94.5177 33.3015 94.5348 33.3263 94.5562 33.3468C94.5776 33.3674 94.6029 33.3833 94.6306 33.3937C94.6584 33.4041 94.6879 33.4086 94.7174 33.4071L95.4963 33.368C95.575 33.3643 95.6279 33.4003 95.655 33.476C95.7301 33.6858 95.7024 33.836 95.572 33.9266C95.3708 34.0681 94.8632 33.9341 94.614 33.9434C94.5804 33.9443 94.5485 33.9587 94.525 33.9834C94.5016 34.0081 94.4885 34.0412 94.4885 34.0756V39.146C94.4886 39.1622 94.4853 39.1783 94.4789 39.1931C94.4725 39.208 94.4631 39.2214 94.4513 39.2324C94.4395 39.2434 94.4255 39.2519 94.4104 39.2572C94.3952 39.2625 94.379 39.2646 94.363 39.2633L94.0197 39.2335C93.9631 39.2285 93.9348 39.1975 93.9348 39.1404V34.0737C93.9348 34.0129 93.9041 33.9819 93.8425 33.9806Z" fill="#E3D9C6"/>
<path d="M40.0834 32.3113C40.3427 32.4186 40.6342 32.3059 40.7344 32.0594C40.8346 31.813 40.7055 31.5262 40.4462 31.4189C40.1868 31.3116 39.8953 31.4244 39.7952 31.6708C39.695 31.9172 39.824 32.204 40.0834 32.3113Z" fill="#E3D9C6"/>
<path d="M15.6533 38.1898C13.5474 40.5751 9.59386 39.0557 9.90394 35.8976C10.1771 33.0989 13.4625 31.9277 15.4318 33.8698C15.4453 33.8837 15.4529 33.9025 15.4529 33.922C15.4529 33.9415 15.4453 33.9602 15.4318 33.9741L11.4414 37.9962C11.4179 38.0198 11.4 38.0484 11.389 38.0799C11.378 38.1114 11.3741 38.145 11.3776 38.1783C11.3811 38.2115 11.392 38.2435 11.4095 38.2719C11.4269 38.3004 11.4504 38.3245 11.4783 38.3425C12.7802 39.1742 13.986 39.0818 15.0959 38.0651C15.2657 37.9086 15.4872 37.8844 15.6459 38.0353C15.6667 38.0551 15.679 38.0822 15.6804 38.111C15.6818 38.1399 15.6721 38.1681 15.6533 38.1898ZM11.111 37.6759L14.6714 34.0877C14.6866 34.0726 14.6981 34.0542 14.705 34.0338C14.7118 34.0134 14.7139 33.9917 14.7111 33.9702C14.7082 33.9488 14.7005 33.9282 14.6885 33.9102C14.6765 33.8921 14.6605 33.877 14.6419 33.8661C12.3421 32.5049 9.92054 34.4135 10.5684 37.0037C10.6398 37.2917 10.7493 37.5145 10.8969 37.6722C10.9671 37.7479 11.0384 37.7491 11.111 37.6759Z" fill="#E3D9C6"/>
<path d="M47.5023 38.787C44.6969 36.694 46.4909 32.5397 49.8685 32.9121C50.6659 33.0003 51.3599 33.4081 51.9505 34.1355C52.012 34.21 51.9979 34.264 51.908 34.2975L51.6183 34.4055C51.553 34.4303 51.4958 34.4179 51.4466 34.3683C49.2779 32.1599 45.7323 34.3347 46.8951 37.1502C47.6795 39.0514 50.0402 39.4499 51.4282 37.923C51.449 37.8998 51.4761 37.8834 51.506 37.8758C51.5359 37.8682 51.5673 37.8697 51.5961 37.8801L51.9486 38.0086C51.9641 38.0144 51.978 38.024 51.989 38.0364C52 38.0489 52.0078 38.0638 52.0116 38.0799C52.0154 38.0959 52.0152 38.1127 52.011 38.1285C52.0068 38.1443 51.9987 38.1588 51.9874 38.1706C50.7249 39.5057 49.0066 39.9098 47.5023 38.787Z" fill="#E3D9C6"/>
<path d="M83.2886 37.9971C83.1471 38.1387 83.1619 38.2609 83.3329 38.364C84.6741 39.1684 85.8849 39.0225 86.9652 37.9264C87.0169 37.8742 87.076 37.8618 87.1424 37.8891L87.4507 38.0176C87.5306 38.0499 87.5429 38.0989 87.4876 38.1647C85.7471 40.2651 82.3971 39.6041 81.7604 36.9153C81.0092 33.7442 85.0199 31.4352 87.2402 33.8689C87.2845 33.9173 87.2839 33.9651 87.2384 34.0123L83.2886 37.9971ZM82.8622 37.688L86.4651 34.0402C86.4671 34.0383 86.4687 34.036 86.4698 34.0335C86.4709 34.0309 86.4714 34.0281 86.4714 34.0253C86.4714 34.0226 86.4709 34.0198 86.4698 34.0172C86.4687 34.0147 86.4671 34.0124 86.4651 34.0105L86.4614 34.0067C86.2529 33.7972 86 33.6368 85.7172 33.5346C85.4345 33.4323 85.1273 33.3903 84.8133 33.4109C84.4993 33.4314 84.1847 33.5142 83.8873 33.6545C83.5899 33.7947 83.3156 33.9897 83.08 34.2283L83.0357 34.273C82.5601 34.7547 82.2712 35.3846 82.2324 36.0243C82.1936 36.6641 82.4082 37.2611 82.829 37.6843L82.8327 37.688C82.8346 37.6901 82.8369 37.6917 82.8394 37.6928C82.842 37.6939 82.8447 37.6945 82.8475 37.6945C82.8502 37.6945 82.853 37.6939 82.8555 37.6928C82.858 37.6917 82.8603 37.6901 82.8622 37.688Z" fill="#E3D9C6"/>
<path d="M58.2185 34.2326C58.627 33.7547 59.1327 33.4307 59.7356 33.2606C59.752 33.2559 59.7692 33.2547 59.786 33.257C59.8029 33.2593 59.8191 33.2651 59.8337 33.274C59.8482 33.2829 59.8608 33.2947 59.8706 33.3088C59.8804 33.3228 59.8872 33.3388 59.8907 33.3556L59.9386 33.6107C59.9559 33.6939 59.9251 33.7504 59.8464 33.7802C57.5891 34.6497 58.0357 37.1524 58.08 39.0405C58.0818 39.1018 58.0635 39.1619 58.028 39.2116C57.9925 39.2614 57.9418 39.298 57.8836 39.3158C57.8255 39.3335 57.7632 39.3315 57.7063 39.3101C57.6494 39.2886 57.6011 39.2488 57.5688 39.1969C57.5122 39.1075 57.4869 38.9666 57.4931 38.7742C57.5558 37.0189 57.5682 35.263 57.53 33.5064C57.5288 33.4295 57.5657 33.3935 57.6407 33.3984L57.9527 33.4208C57.9891 33.4236 58.0229 33.4409 58.0468 33.4688C58.0706 33.4967 58.0826 33.533 58.08 33.5697L58.0376 34.1582C58.0364 34.1798 58.042 34.2013 58.0534 34.2196C58.0649 34.2379 58.0818 34.2522 58.1017 34.2604C58.1216 34.2686 58.1436 34.2703 58.1645 34.2653C58.1854 34.2604 58.2043 34.2489 58.2185 34.2326Z" fill="#E3D9C6"/>
<path d="M40.4267 33.3848H40.1609C40.0936 33.3848 40.0391 33.4398 40.0391 33.5077V39.1162C40.0391 39.1841 40.0936 39.2391 40.1609 39.2391H40.4267C40.4939 39.2391 40.5485 39.1841 40.5485 39.1162V33.5077C40.5485 33.4398 40.4939 33.3848 40.4267 33.3848Z" fill="#E3D9C6"/>
<path d="M69.6676 38.1921C68.5085 40.11 65.3875 39.503 65.3081 37.127C65.2675 35.9278 65.2626 34.7262 65.2933 33.522C65.2946 33.4314 65.3401 33.3886 65.4299 33.3935L65.6219 33.4047C65.7031 33.4097 65.7437 33.4531 65.7437 33.535C65.7381 34.6635 65.4945 36.978 66.0113 37.9351C66.6259 39.0728 68.6304 39.1548 69.245 37.9351C69.7175 36.9966 69.4886 34.6299 69.4702 33.5313C69.4689 33.4556 69.5058 33.4128 69.5809 33.4028L69.8005 33.3749C69.8879 33.3637 69.934 33.4028 69.939 33.4922C69.9962 34.6486 70.2546 37.2201 69.6676 38.1921Z" fill="#E3D9C6"/>
</svg>
