<svg width="350" height="350" viewBox="0 0 350 350" fill="none" xmlns="http://www.w3.org/2000/svg">
<path d="M161 0.5V148.5M161 148.5L138 218M161 148.5L210 126.346M161 148.5L186.669 177M138 218L229 224M138 218L1 349M229 224L236.5 349.5M229 224L186.669 177M349 63.5L210 126.346M210 126.346L218 158M218 158L186.669 177M218 158L349.5 234.5" stroke="#E3D9C6"/>
<path d="M181.416 126.066L182.419 125.603L186.231 133.867L185.228 134.329L181.416 126.066ZM182.406 126.755L181.971 125.81L183.659 125.032C184.194 124.785 184.717 124.667 185.229 124.68C185.744 124.68 186.209 124.809 186.624 125.067C187.046 125.32 187.376 125.703 187.612 126.215C187.844 126.718 187.921 127.217 187.844 127.711C187.771 128.193 187.569 128.635 187.238 129.036C186.912 129.425 186.481 129.743 185.946 129.99L184.258 130.768L183.822 129.824L185.51 129.045C186.045 128.798 186.418 128.469 186.629 128.057C186.848 127.641 186.841 127.181 186.608 126.677C186.372 126.166 186.027 125.862 185.572 125.767C185.122 125.659 184.629 125.729 184.094 125.976L182.406 126.755ZM189.554 129.041C189.3 128.49 189.197 127.946 189.244 127.408C189.3 126.867 189.484 126.377 189.797 125.937C190.109 125.497 190.529 125.155 191.056 124.912C191.591 124.665 192.124 124.567 192.653 124.619C193.191 124.667 193.68 124.847 194.12 125.159C194.568 125.468 194.919 125.898 195.173 126.449C195.423 126.992 195.522 127.538 195.47 128.087C195.422 128.624 195.242 129.113 194.93 129.553C194.625 129.99 194.205 130.331 193.67 130.578C193.143 130.821 192.61 130.919 192.073 130.871C191.535 130.823 191.043 130.645 190.595 130.336C190.151 130.016 189.804 129.584 189.554 129.041ZM190.51 128.6C190.684 128.978 190.917 129.276 191.209 129.494C191.508 129.709 191.836 129.84 192.191 129.886C192.551 129.92 192.908 129.856 193.262 129.693C193.616 129.529 193.893 129.301 194.092 129.009C194.295 128.705 194.408 128.372 194.432 128.008C194.462 127.64 194.391 127.268 194.217 126.89C194.042 126.512 193.805 126.216 193.506 126.001C193.21 125.775 192.883 125.644 192.523 125.609C192.172 125.571 191.819 125.634 191.465 125.797C191.111 125.961 190.83 126.19 190.623 126.486C190.424 126.779 190.31 127.112 190.283 127.488C190.26 127.851 190.336 128.222 190.51 128.6ZM196.895 125.654C197.069 126.032 197.302 126.33 197.594 126.549C197.893 126.764 198.221 126.894 198.576 126.94C198.936 126.975 199.293 126.911 199.647 126.747C199.938 126.613 200.189 126.444 200.401 126.242C200.618 126.027 200.786 125.802 200.905 125.565C201.022 125.321 201.079 125.094 201.078 124.884L201.623 126.065C201.535 126.372 201.344 126.671 201.048 126.96C200.756 127.238 200.425 127.462 200.055 127.633C199.528 127.876 198.996 127.973 198.458 127.925C197.921 127.878 197.428 127.699 196.98 127.39C196.536 127.07 196.189 126.638 195.939 126.095C195.685 125.545 195.582 125 195.629 124.463C195.685 123.922 195.869 123.431 196.182 122.991C196.494 122.551 196.914 122.21 197.441 121.966C197.811 121.796 198.198 121.694 198.603 121.66C199.011 121.614 199.361 121.658 199.651 121.792L200.196 122.972C200.034 122.827 199.824 122.724 199.566 122.661C199.308 122.599 199.029 122.584 198.73 122.618C198.434 122.639 198.141 122.717 197.85 122.852C197.496 123.015 197.215 123.245 197.008 123.541C196.809 123.833 196.695 124.167 196.668 124.542C196.645 124.906 196.721 125.277 196.895 125.654ZM200.028 120.916L203.216 119.446L203.624 120.331L200.437 121.801L200.028 120.916ZM201.259 120.635L202.203 120.199L204.599 125.393L203.655 125.829L201.259 120.635ZM204.77 122.021C204.516 121.47 204.413 120.926 204.461 120.389C204.517 119.848 204.701 119.357 205.013 118.917C205.326 118.477 205.746 118.135 206.273 117.892C206.808 117.645 207.341 117.548 207.87 117.599C208.408 117.647 208.896 117.827 209.336 118.14C209.784 118.449 210.135 118.878 210.389 119.429C210.64 119.972 210.739 120.518 210.687 121.067C210.639 121.605 210.459 122.094 210.146 122.534C209.842 122.97 209.422 123.311 208.887 123.558C208.36 123.802 207.827 123.899 207.29 123.851C206.752 123.803 206.26 123.625 205.812 123.316C205.368 122.996 205.021 122.564 204.77 122.021ZM205.727 121.58C205.901 121.958 206.134 122.256 206.426 122.475C206.725 122.69 207.053 122.82 207.408 122.866C207.767 122.901 208.124 122.836 208.478 122.673C208.833 122.51 209.109 122.282 209.308 121.989C209.512 121.686 209.625 121.352 209.648 120.988C209.679 120.621 209.608 120.248 209.433 119.87C209.259 119.493 209.022 119.196 208.722 118.981C208.427 118.755 208.1 118.624 207.74 118.59C207.388 118.552 207.036 118.614 206.681 118.778C206.327 118.941 206.047 119.171 205.84 119.467C205.64 119.759 205.527 120.093 205.5 120.468C205.477 120.832 205.552 121.202 205.727 121.58ZM212.187 118.457L213.757 117.733C214.135 117.558 214.491 117.442 214.827 117.382C215.162 117.323 215.462 117.352 215.726 117.469C215.989 117.586 216.203 117.821 216.366 118.175C216.555 118.584 216.579 118.998 216.438 119.416C216.301 119.823 215.922 120.17 215.3 120.457L213.494 121.29L213.113 120.464L214.683 119.739C215.037 119.576 215.262 119.381 215.358 119.156C215.463 118.926 215.466 118.705 215.368 118.493C215.317 118.383 215.248 118.295 215.161 118.23C215.081 118.162 214.982 118.112 214.863 118.081C214.752 118.047 214.622 118.045 214.473 118.075C214.329 118.094 214.167 118.145 213.986 118.228L212.416 118.953L212.187 118.457ZM212.296 118.693L212.04 118.138L213.492 117.468C213.634 117.403 213.752 117.329 213.848 117.247C213.948 117.153 214.021 117.053 214.067 116.945C214.113 116.838 214.136 116.732 214.135 116.628C214.139 116.511 214.117 116.402 214.07 116.3C213.972 116.087 213.811 115.956 213.588 115.907C213.361 115.849 213.105 115.886 212.822 116.016L211.37 116.686L210.989 115.86L212.441 115.19C212.779 115.034 213.11 114.943 213.433 114.919C213.759 114.882 214.06 114.935 214.335 115.075C214.606 115.208 214.823 115.451 214.987 115.805C215.128 116.112 215.16 116.408 215.081 116.692C214.999 116.969 214.839 117.224 214.603 117.457C214.371 117.678 214.086 117.867 213.748 118.023L212.296 118.693ZM210.434 116.116L211.379 115.68L213.884 121.11L212.939 121.546L210.434 116.116ZM217.461 116.167C217.635 116.545 217.868 116.843 218.16 117.062C218.459 117.277 218.787 117.407 219.142 117.453C219.501 117.488 219.858 117.423 220.212 117.26C220.504 117.126 220.755 116.957 220.967 116.754C221.183 116.54 221.351 116.315 221.471 116.078C221.587 115.834 221.645 115.607 221.644 115.397L222.188 116.578C222.101 116.885 221.909 117.183 221.613 117.473C221.322 117.751 220.991 117.975 220.621 118.145C220.094 118.389 219.561 118.486 219.024 118.438C218.486 118.39 217.993 118.212 217.546 117.903C217.102 117.583 216.755 117.151 216.504 116.608C216.25 116.057 216.147 115.513 216.195 114.976C216.251 114.435 216.435 113.944 216.747 113.504C217.06 113.064 217.48 112.722 218.007 112.479C218.377 112.309 218.764 112.206 219.168 112.173C219.577 112.127 219.926 112.171 220.217 112.304L220.762 113.485C220.599 113.34 220.389 113.237 220.131 113.174C219.874 113.112 219.595 113.097 219.295 113.13C219 113.152 218.707 113.23 218.415 113.365C218.061 113.528 217.781 113.758 217.574 114.054C217.374 114.346 217.261 114.68 217.234 115.055C217.211 115.419 217.286 115.789 217.461 116.167ZM221.361 111.075L222.306 110.639L224.811 116.069L223.866 116.505L221.361 111.075ZM224.312 109.714L225.493 109.169L224.167 112.501L228.234 114.49L227.053 115.035L222.986 113.046L224.312 109.714ZM227.227 111.662C226.973 111.111 226.869 110.567 226.917 110.029C226.973 109.488 227.157 108.998 227.47 108.558C227.782 108.118 228.202 107.776 228.729 107.533C229.264 107.286 229.797 107.188 230.326 107.24C230.864 107.288 231.353 107.468 231.793 107.78C232.24 108.089 232.591 108.519 232.846 109.07C233.096 109.613 233.195 110.159 233.143 110.708C233.095 111.245 232.915 111.734 232.603 112.174C232.298 112.611 231.878 112.952 231.343 113.199C230.816 113.442 230.283 113.54 229.746 113.492C229.208 113.444 228.716 113.266 228.268 112.957C227.824 112.637 227.477 112.205 227.227 111.662ZM228.183 111.221C228.357 111.599 228.59 111.897 228.882 112.115C229.181 112.33 229.509 112.461 229.864 112.507C230.224 112.541 230.581 112.477 230.935 112.314C231.289 112.15 231.565 111.923 231.765 111.63C231.968 111.326 232.081 110.993 232.104 110.629C232.135 110.261 232.064 109.889 231.889 109.511C231.715 109.133 231.478 108.837 231.179 108.622C230.883 108.396 230.556 108.265 230.196 108.23C229.845 108.192 229.492 108.255 229.138 108.418C228.783 108.582 228.503 108.811 228.296 109.107C228.097 109.4 227.983 109.733 227.956 110.109C227.933 110.472 228.009 110.843 228.183 111.221ZM234.382 108.648L234.011 107.845L237.635 106.173C237.473 105.904 237.28 105.693 237.056 105.538C236.836 105.373 236.589 105.281 236.314 105.265C236.044 105.237 235.751 105.296 235.436 105.441C235.122 105.586 234.865 105.786 234.667 106.039C234.469 106.293 234.35 106.582 234.308 106.906C234.271 107.219 234.331 107.545 234.487 107.883L234.627 108.248C234.819 108.665 235.053 108.987 235.329 109.213C235.605 109.438 235.908 109.566 236.236 109.596C236.565 109.626 236.907 109.559 237.261 109.395C237.528 109.272 237.746 109.124 237.914 108.951C238.087 108.766 238.223 108.565 238.323 108.347C238.419 108.121 238.481 107.883 238.509 107.632L239.499 107.762C239.445 108.12 239.357 108.457 239.235 108.771C239.109 109.077 238.916 109.362 238.655 109.625C238.391 109.881 238.023 110.117 237.551 110.335C237.063 110.56 236.566 110.642 236.06 110.579C235.562 110.513 235.101 110.32 234.677 110.001C234.256 109.669 233.921 109.232 233.671 108.689C233.624 108.587 233.582 108.487 233.546 108.389C233.511 108.291 233.479 108.191 233.451 108.089C233.323 107.604 233.299 107.138 233.379 106.691C233.459 106.244 233.64 105.84 233.923 105.481C234.213 105.117 234.591 104.829 235.055 104.615C235.567 104.379 236.068 104.286 236.559 104.336C237.05 104.387 237.498 104.571 237.903 104.89C238.304 105.201 238.637 105.644 238.902 106.219C238.924 106.266 238.946 106.313 238.967 106.36C238.989 106.408 239.007 106.457 239.021 106.508L234.382 108.648ZM248.792 103.933L251.094 102.871L248.997 98.3263L249.941 97.8906L252.446 103.321L245.01 106.751L242.505 101.321L243.449 100.886L245.546 105.43L247.847 104.369L245.751 99.8238L246.695 99.3881L248.792 103.933ZM252.496 100.005C252.242 99.4543 252.138 98.9101 252.186 98.3726C252.242 97.8314 252.426 97.3409 252.739 96.9009C253.051 96.4609 253.471 96.1193 253.998 95.876C254.533 95.6292 255.066 95.5315 255.595 95.5831C256.133 95.631 256.622 95.8111 257.062 96.1236C257.509 96.4324 257.86 96.8622 258.115 97.4131C258.365 97.9561 258.464 98.5021 258.412 99.0511C258.364 99.5886 258.184 100.077 257.872 100.517C257.567 100.954 257.147 101.295 256.612 101.542C256.085 101.785 255.552 101.883 255.015 101.835C254.477 101.787 253.985 101.609 253.537 101.3C253.093 100.98 252.746 100.548 252.496 100.005ZM253.452 99.5641C253.626 99.9418 253.859 100.24 254.151 100.459C254.45 100.673 254.778 100.804 255.133 100.85C255.493 100.885 255.85 100.82 256.204 100.657C256.558 100.493 256.834 100.266 257.034 99.9733C257.237 99.6695 257.35 99.3357 257.373 98.9719C257.404 98.6045 257.333 98.2319 257.158 97.8542C256.984 97.4764 256.747 97.1801 256.448 96.9651C256.152 96.7387 255.825 96.6082 255.465 96.5736C255.114 96.5354 254.761 96.598 254.407 96.7614C254.052 96.9247 253.772 97.1544 253.565 97.4503C253.366 97.7427 253.252 98.0765 253.225 98.4518C253.202 98.8155 253.278 99.1863 253.452 99.5641ZM259.837 96.6186C260.011 96.9963 260.244 97.2945 260.536 97.513C260.835 97.728 261.163 97.8585 261.518 97.9046C261.878 97.9391 262.235 97.8747 262.589 97.7114C262.88 97.577 263.131 97.4085 263.343 97.2058C263.559 96.9915 263.727 96.7661 263.847 96.5294C263.964 96.2849 264.021 96.0579 264.02 95.8485L264.565 97.0289C264.477 97.3364 264.286 97.6348 263.99 97.9241C263.698 98.2019 263.367 98.4261 262.997 98.5967C262.47 98.8399 261.937 98.9376 261.4 98.8897C260.862 98.8417 260.37 98.6634 259.922 98.3546C259.478 98.0343 259.131 97.6027 258.881 97.0597C258.627 96.5088 258.523 95.9646 258.571 95.4271C258.627 94.886 258.811 94.3954 259.124 93.9554C259.436 93.5154 259.856 93.1738 260.383 92.9305C260.753 92.7599 261.14 92.6577 261.545 92.6239C261.953 92.5785 262.303 92.6225 262.593 92.7557L263.138 93.9362C262.976 93.7915 262.766 93.6879 262.508 93.6255C262.25 93.5631 261.971 93.5486 261.672 93.5818C261.376 93.6035 261.083 93.6816 260.792 93.8159C260.438 93.9792 260.157 94.2089 259.95 94.5049C259.751 94.7972 259.637 95.131 259.61 95.5063C259.587 95.8701 259.663 96.2408 259.837 96.6186ZM265.474 94.0181C265.648 94.3959 265.881 94.694 266.173 94.9126C266.473 95.1275 266.8 95.258 267.155 95.3041C267.515 95.3387 267.872 95.2743 268.226 95.1109C268.517 94.9766 268.769 94.808 268.98 94.6053C269.197 94.3911 269.365 94.1656 269.484 93.929C269.601 93.6844 269.658 93.4575 269.657 93.248L270.202 94.4285C270.114 94.736 269.923 95.0343 269.627 95.3236C269.335 95.6014 269.004 95.8256 268.634 95.9962C268.107 96.2395 267.575 96.3371 267.037 96.2892C266.5 96.2413 266.007 96.0629 265.559 95.7541C265.115 95.4339 264.768 95.0022 264.518 94.4592C264.264 93.9083 264.161 93.3641 264.208 92.8266C264.264 92.2855 264.448 91.7949 264.761 91.3549C265.073 90.9149 265.493 90.5733 266.02 90.3301C266.39 90.1595 266.777 90.0572 267.182 90.0234C267.59 89.9781 267.94 90.022 268.23 90.1553L268.775 91.3357C268.613 91.191 268.403 91.0875 268.145 91.0251C267.887 90.9627 267.608 90.9481 267.309 90.9813C267.013 91.0031 266.72 91.0811 266.429 91.2154C266.075 91.3788 265.794 91.6084 265.587 91.9044C265.388 92.1967 265.274 92.5305 265.247 92.9058C265.224 93.2696 265.3 93.6404 265.474 94.0181ZM270.925 91.7899L270.555 90.9872L274.179 89.3154C274.016 89.0466 273.823 88.835 273.599 88.6806C273.38 88.5147 273.132 88.4236 272.858 88.4072C272.587 88.3793 272.294 88.4379 271.98 88.5832C271.665 88.7284 271.408 88.9278 271.21 89.1814C271.012 89.4349 270.893 89.724 270.852 90.0484C270.815 90.3613 270.874 90.687 271.03 91.0254L271.17 91.3904C271.363 91.8075 271.597 92.129 271.873 92.3548C272.149 92.5806 272.451 92.7084 272.78 92.7381C273.108 92.7679 273.45 92.701 273.804 92.5377C274.071 92.4142 274.289 92.266 274.458 92.0929C274.63 91.9083 274.766 91.7071 274.866 91.4892C274.963 91.2634 275.024 91.0249 275.052 90.7737L276.042 90.9038C275.988 91.2627 275.9 91.5992 275.778 91.9134C275.652 92.2196 275.459 92.5044 275.198 92.7676C274.934 93.023 274.566 93.2596 274.094 93.4775C273.606 93.7025 273.109 93.7839 272.603 93.7214C272.105 93.6553 271.644 93.4625 271.22 93.1428C270.8 92.8116 270.464 92.3745 270.214 91.8315C270.167 91.7292 270.125 91.629 270.09 91.531C270.054 91.4329 270.022 91.333 269.994 91.2313C269.866 90.7464 269.842 90.2803 269.922 89.833C270.002 89.3857 270.183 88.9823 270.466 88.6228C270.757 88.2597 271.134 87.971 271.598 87.7568C272.11 87.5209 272.611 87.4281 273.102 87.4784C273.593 87.5287 274.041 87.7134 274.446 88.0325C274.847 88.3437 275.18 88.7865 275.445 89.361C275.467 89.4082 275.489 89.4555 275.51 89.5027C275.532 89.5499 275.55 89.5989 275.564 89.6498L270.925 91.7899Z" fill="#E3D9C6" fill-opacity="0.7"/>
<path d="M11.15 257.94H6.145V266H5.04L5.04 256.9H12.255V266H11.15V257.94ZM15.243 268.86H14.203V260.02H15.243V268.86ZM20.248 263.01C20.248 263.651 20.1136 264.206 19.845 264.674C19.5763 265.142 19.2166 265.502 18.766 265.753C18.324 266.004 17.83 266.13 17.284 266.13C16.79 266.13 16.3523 266.004 15.971 265.753C15.5983 265.502 15.3036 265.142 15.087 264.674C14.879 264.206 14.775 263.651 14.775 263.01C14.775 262.36 14.879 261.805 15.087 261.346C15.3036 260.878 15.5983 260.518 15.971 260.267C16.3523 260.016 16.79 259.89 17.284 259.89C17.83 259.89 18.324 260.016 18.766 260.267C19.2166 260.518 19.5763 260.878 19.845 261.346C20.1136 261.805 20.248 262.36 20.248 263.01ZM19.195 263.01C19.195 262.551 19.0996 262.161 18.909 261.84C18.727 261.519 18.48 261.277 18.168 261.112C17.8646 260.947 17.5266 260.865 17.154 260.865C16.8506 260.865 16.5516 260.947 16.257 261.112C15.9623 261.277 15.7196 261.519 15.529 261.84C15.3383 262.161 15.243 262.551 15.243 263.01C15.243 263.469 15.3383 263.859 15.529 264.18C15.7196 264.501 15.9623 264.743 16.257 264.908C16.5516 265.073 16.8506 265.155 17.154 265.155C17.5266 265.155 17.8646 265.073 18.168 264.908C18.48 264.743 18.727 264.501 18.909 264.18C19.0996 263.859 19.195 263.469 19.195 263.01ZM26.687 261.06L21.747 266.455L21.812 264.96L26.752 259.565L26.687 261.06ZM22.787 260.02V265.025L21.747 266.455V260.02H22.787ZM26.752 259.565V266H25.712V260.995L26.752 259.565ZM28.701 260.02H29.741V266H28.701V260.02ZM31.951 260.02H33.251L30.651 262.49L33.511 266H32.211L29.351 262.49L31.951 260.02ZM39.427 260.02L35.527 268.86H34.357L35.995 265.155L33.707 260.02H34.942L36.84 264.7L36.411 264.648L38.257 260.02H39.427ZM42.9816 260.865V259.89C43.571 259.89 44.0953 260.024 44.5546 260.293C45.0226 260.562 45.391 260.93 45.6596 261.398C45.937 261.866 46.0756 262.403 46.0756 263.01C46.0756 263.608 45.937 264.145 45.6596 264.622C45.391 265.09 45.0226 265.458 44.5546 265.727C44.0953 265.996 43.571 266.13 42.9816 266.13C42.401 266.13 41.8766 265.987 41.4086 265.701C40.9406 265.406 40.568 264.969 40.2906 264.388C40.022 263.807 39.8876 263.088 39.8876 262.23L40.9276 263.01C40.9276 263.426 41.0186 263.794 41.2006 264.115C41.3826 264.436 41.6253 264.691 41.9286 264.882C42.2406 265.064 42.5916 265.155 42.9816 265.155C43.3716 265.155 43.7183 265.064 44.0216 264.882C44.3336 264.691 44.5763 264.436 44.7496 264.115C44.9316 263.794 45.0226 263.426 45.0226 263.01C45.0226 262.594 44.9316 262.226 44.7496 261.905C44.5763 261.576 44.3336 261.32 44.0216 261.138C43.7183 260.956 43.3716 260.865 42.9816 260.865ZM40.4596 263.01C40.4596 262.525 40.5203 262.091 40.6416 261.71C40.763 261.32 40.9363 260.991 41.1616 260.722C41.387 260.453 41.6513 260.25 41.9546 260.111C42.2666 259.964 42.609 259.89 42.9816 259.89V260.865C42.7563 260.865 42.5223 260.913 42.2796 261.008C42.037 261.103 41.8116 261.242 41.6036 261.424C41.4043 261.606 41.2396 261.831 41.1096 262.1C40.9883 262.36 40.9276 262.663 40.9276 263.01H40.4596ZM39.8876 262.23C39.8876 261.415 39.9656 260.696 40.1216 260.072C40.2776 259.448 40.5506 258.919 40.9406 258.486C41.3393 258.044 41.8853 257.706 42.5786 257.472C43.168 257.273 43.6056 257.034 43.8916 256.757C44.1863 256.471 44.364 256.172 44.4246 255.86H45.4516C45.4083 256.241 45.2696 256.592 45.0356 256.913C44.8016 257.225 44.494 257.498 44.1126 257.732C43.74 257.966 43.3153 258.161 42.8386 258.317C42.3013 258.49 41.881 258.75 41.5776 259.097C41.283 259.444 41.0793 259.838 40.9666 260.28C40.854 260.713 40.7976 261.147 40.7976 261.58V262.919L39.8876 262.23ZM47.9723 264.245C47.9723 264.453 48.0286 264.631 48.1413 264.778C48.254 264.917 48.4056 265.025 48.5963 265.103C48.787 265.172 48.9993 265.207 49.2333 265.207C49.58 265.207 49.8876 265.155 50.1563 265.051C50.425 264.947 50.633 264.782 50.7803 264.557C50.9363 264.332 51.0143 264.033 51.0143 263.66L51.2223 264.31C51.2223 264.691 51.1183 265.021 50.9103 265.298C50.711 265.567 50.4423 265.775 50.1043 265.922C49.7663 266.061 49.3893 266.13 48.9733 266.13C48.6006 266.13 48.2583 266.061 47.9463 265.922C47.6343 265.783 47.383 265.58 47.1923 265.311C47.0103 265.034 46.9193 264.691 46.9193 264.284C46.9193 263.859 47.0233 263.5 47.2313 263.205C47.4393 262.91 47.734 262.685 48.1153 262.529C48.4966 262.364 48.9473 262.282 49.4673 262.282C49.8486 262.282 50.1736 262.334 50.4423 262.438C50.7196 262.533 50.9406 262.646 51.1053 262.776C51.27 262.897 51.3826 262.997 51.4433 263.075V263.686C51.1486 263.478 50.8496 263.326 50.5463 263.231C50.243 263.127 49.9006 263.075 49.5193 263.075C49.1726 263.075 48.8823 263.123 48.6483 263.218C48.423 263.313 48.254 263.448 48.1413 263.621C48.0286 263.794 47.9723 264.002 47.9723 264.245ZM47.9723 261.424L47.4653 260.631C47.6906 260.466 47.994 260.302 48.3753 260.137C48.7566 259.972 49.216 259.89 49.7533 259.89C50.2126 259.89 50.6113 259.964 50.9493 260.111C51.296 260.25 51.5646 260.453 51.7553 260.722C51.9546 260.991 52.0543 261.32 52.0543 261.71V266H51.0143V261.71C51.0143 261.407 50.8843 261.181 50.6243 261.034C50.373 260.878 50.0826 260.8 49.7533 260.8C49.4673 260.8 49.2073 260.839 48.9733 260.917C48.7393 260.986 48.5356 261.073 48.3623 261.177C48.1976 261.272 48.0676 261.355 47.9723 261.424ZM54.4249 263.335V262.36H58.8449V263.335H54.4249ZM58.1689 260.02H59.2089V266H58.1689V260.02ZM53.8139 260.02H54.8539V266H53.8139V260.02ZM61.6325 263.01C61.6325 263.426 61.7191 263.794 61.8925 264.115C62.0745 264.436 62.3171 264.691 62.6205 264.882C62.9325 265.064 63.2835 265.155 63.6735 265.155C63.9941 265.155 64.2931 265.107 64.5705 265.012C64.8565 264.908 65.1035 264.774 65.3115 264.609C65.5195 264.436 65.6668 264.254 65.7535 264.063V265.363C65.5455 265.606 65.2465 265.796 64.8565 265.935C64.4751 266.065 64.0808 266.13 63.6735 266.13C63.0928 266.13 62.5685 265.996 62.1005 265.727C61.6325 265.458 61.2598 265.09 60.9825 264.622C60.7138 264.145 60.5795 263.608 60.5795 263.01C60.5795 262.403 60.7138 261.866 60.9825 261.398C61.2598 260.93 61.6325 260.562 62.1005 260.293C62.5685 260.024 63.0928 259.89 63.6735 259.89C64.0808 259.89 64.4751 259.959 64.8565 260.098C65.2465 260.228 65.5455 260.414 65.7535 260.657V261.957C65.6668 261.758 65.5195 261.576 65.3115 261.411C65.1035 261.246 64.8565 261.116 64.5705 261.021C64.2931 260.917 63.9941 260.865 63.6735 260.865C63.2835 260.865 62.9325 260.956 62.6205 261.138C62.3171 261.32 62.0745 261.576 61.8925 261.905C61.7191 262.226 61.6325 262.594 61.6325 263.01ZM67.3075 260.02H68.3475V266H67.3075V260.02ZM70.5575 260.02H71.8575L69.2575 262.49L72.1175 266H70.8175L67.9575 262.49L70.5575 260.02ZM78.103 261.06L73.163 266.455L73.228 264.96L78.168 259.565L78.103 261.06ZM74.203 260.02V265.025L73.163 266.455V260.02H74.203ZM78.168 259.565V266H77.128V260.995L78.168 259.565ZM85.187 261.06L80.247 266.455L80.312 264.96L85.252 259.565L85.187 261.06ZM81.287 260.02V265.025L80.247 266.455V260.02H81.287ZM85.252 259.565V266H84.212V260.995L85.252 259.565ZM80.728 256.965H81.651C81.651 257.078 81.6814 257.212 81.742 257.368C81.8027 257.515 81.9154 257.65 82.08 257.771C82.2447 257.884 82.4787 257.94 82.782 257.94C83.0854 257.94 83.3194 257.884 83.484 257.771C83.6487 257.65 83.7614 257.515 83.822 257.368C83.8827 257.212 83.913 257.078 83.913 256.965H84.836C84.836 257.26 84.758 257.55 84.602 257.836C84.4547 258.113 84.2294 258.343 83.926 258.525C83.6227 258.698 83.2414 258.785 82.782 258.785C82.3314 258.785 81.95 258.698 81.638 258.525C81.3347 258.343 81.105 258.113 80.949 257.836C80.8017 257.55 80.728 257.26 80.728 256.965ZM4.455 276.01C4.455 275.403 4.58933 274.866 4.858 274.398C5.13533 273.93 5.508 273.562 5.976 273.293C6.444 273.024 6.96833 272.89 7.549 272.89C8.13833 272.89 8.66267 273.024 9.122 273.293C9.59 273.562 9.95833 273.93 10.227 274.398C10.5043 274.866 10.643 275.403 10.643 276.01C10.643 276.608 10.5043 277.145 10.227 277.622C9.95833 278.09 9.59 278.458 9.122 278.727C8.66267 278.996 8.13833 279.13 7.549 279.13C6.96833 279.13 6.444 278.996 5.976 278.727C5.508 278.458 5.13533 278.09 4.858 277.622C4.58933 277.145 4.455 276.608 4.455 276.01ZM5.508 276.01C5.508 276.426 5.59467 276.794 5.768 277.115C5.95 277.436 6.19267 277.691 6.496 277.882C6.808 278.064 7.159 278.155 7.549 278.155C7.939 278.155 8.28567 278.064 8.589 277.882C8.901 277.691 9.14367 277.436 9.317 277.115C9.499 276.794 9.59 276.426 9.59 276.01C9.59 275.594 9.499 275.226 9.317 274.905C9.14367 274.576 8.901 274.32 8.589 274.138C8.28567 273.956 7.939 273.865 7.549 273.865C7.159 273.865 6.808 273.956 6.496 274.138C6.19267 274.32 5.95 274.576 5.768 274.905C5.59467 275.226 5.508 275.594 5.508 276.01ZM12.0067 273.02H13.0467V279H12.0067V273.02ZM15.2567 273.02H16.5567L13.9567 275.49L16.8167 279H15.5167L12.6567 275.49L15.2567 273.02ZM18.7723 281.86H17.7323V273.02H18.7723V281.86ZM23.7773 276.01C23.7773 276.651 23.6429 277.206 23.3743 277.674C23.1056 278.142 22.7459 278.502 22.2953 278.753C21.8533 279.004 21.3593 279.13 20.8133 279.13C20.3193 279.13 19.8816 279.004 19.5003 278.753C19.1276 278.502 18.8329 278.142 18.6163 277.674C18.4083 277.206 18.3043 276.651 18.3043 276.01C18.3043 275.36 18.4083 274.805 18.6163 274.346C18.8329 273.878 19.1276 273.518 19.5003 273.267C19.8816 273.016 20.3193 272.89 20.8133 272.89C21.3593 272.89 21.8533 273.016 22.2953 273.267C22.7459 273.518 23.1056 273.878 23.3743 274.346C23.6429 274.805 23.7773 275.36 23.7773 276.01ZM22.7243 276.01C22.7243 275.551 22.6289 275.161 22.4383 274.84C22.2563 274.519 22.0093 274.277 21.6973 274.112C21.3939 273.947 21.0559 273.865 20.6833 273.865C20.3799 273.865 20.0809 273.947 19.7863 274.112C19.4916 274.277 19.2489 274.519 19.0583 274.84C18.8676 275.161 18.7723 275.551 18.7723 276.01C18.7723 276.469 18.8676 276.859 19.0583 277.18C19.2489 277.501 19.4916 277.743 19.7863 277.908C20.0809 278.073 20.3799 278.155 20.6833 278.155C21.0559 278.155 21.3939 278.073 21.6973 277.908C22.0093 277.743 22.2563 277.501 22.4383 277.18C22.6289 276.859 22.7243 276.469 22.7243 276.01ZM29.7659 273.02L25.8659 281.86H24.6959L26.3339 278.155L24.0459 273.02H25.2809L27.1789 277.7L26.7499 277.648L28.5959 273.02H29.7659ZM30.8115 273.02H33.9965V273.995H31.8515V279H30.8115V273.02Z" fill="#E3D9C6" fill-opacity="0.7"/>
<path d="M230.04 139.9H231.145V149H230.04V139.9ZM230.651 140.94V139.9H232.51C233.099 139.9 233.624 140.013 234.083 140.238C234.551 140.455 234.919 140.767 235.188 141.174C235.465 141.581 235.604 142.067 235.604 142.63C235.604 143.185 235.465 143.67 235.188 144.086C234.919 144.493 234.551 144.81 234.083 145.035C233.624 145.252 233.099 145.36 232.51 145.36H230.651V144.32H232.51C233.099 144.32 233.576 144.177 233.94 143.891C234.313 143.605 234.499 143.185 234.499 142.63C234.499 142.067 234.313 141.646 233.94 141.369C233.576 141.083 233.099 140.94 232.51 140.94H230.651ZM236.184 146.01C236.184 145.403 236.318 144.866 236.587 144.398C236.864 143.93 237.237 143.562 237.705 143.293C238.173 143.024 238.697 142.89 239.278 142.89C239.867 142.89 240.391 143.024 240.851 143.293C241.319 143.562 241.687 143.93 241.956 144.398C242.233 144.866 242.372 145.403 242.372 146.01C242.372 146.608 242.233 147.145 241.956 147.622C241.687 148.09 241.319 148.458 240.851 148.727C240.391 148.996 239.867 149.13 239.278 149.13C238.697 149.13 238.173 148.996 237.705 148.727C237.237 148.458 236.864 148.09 236.587 147.622C236.318 147.145 236.184 146.608 236.184 146.01ZM237.237 146.01C237.237 146.426 237.323 146.794 237.497 147.115C237.679 147.436 237.921 147.691 238.225 147.882C238.537 148.064 238.888 148.155 239.278 148.155C239.668 148.155 240.014 148.064 240.318 147.882C240.63 147.691 240.872 147.436 241.046 147.115C241.228 146.794 241.319 146.426 241.319 146.01C241.319 145.594 241.228 145.226 241.046 144.905C240.872 144.576 240.63 144.32 240.318 144.138C240.014 143.956 239.668 143.865 239.278 143.865C238.888 143.865 238.537 143.956 238.225 144.138C237.921 144.32 237.679 144.576 237.497 144.905C237.323 145.226 237.237 145.594 237.237 146.01ZM244.268 146.01C244.268 146.426 244.355 146.794 244.528 147.115C244.71 147.436 244.953 147.691 245.256 147.882C245.568 148.064 245.919 148.155 246.309 148.155C246.63 148.155 246.929 148.107 247.206 148.012C247.492 147.908 247.739 147.774 247.947 147.609C248.155 147.436 248.303 147.254 248.389 147.063V148.363C248.181 148.606 247.882 148.796 247.492 148.935C247.111 149.065 246.717 149.13 246.309 149.13C245.729 149.13 245.204 148.996 244.736 148.727C244.268 148.458 243.896 148.09 243.618 147.622C243.35 147.145 243.215 146.608 243.215 146.01C243.215 145.403 243.35 144.866 243.618 144.398C243.896 143.93 244.268 143.562 244.736 143.293C245.204 143.024 245.729 142.89 246.309 142.89C246.717 142.89 247.111 142.959 247.492 143.098C247.882 143.228 248.181 143.414 248.389 143.657V144.957C248.303 144.758 248.155 144.576 247.947 144.411C247.739 144.246 247.492 144.116 247.206 144.021C246.929 143.917 246.63 143.865 246.309 143.865C245.919 143.865 245.568 143.956 245.256 144.138C244.953 144.32 244.71 144.576 244.528 144.905C244.355 145.226 244.268 145.594 244.268 146.01ZM250.476 146.01C250.476 146.426 250.563 146.794 250.736 147.115C250.918 147.436 251.161 147.691 251.464 147.882C251.776 148.064 252.127 148.155 252.517 148.155C252.838 148.155 253.137 148.107 253.414 148.012C253.7 147.908 253.947 147.774 254.155 147.609C254.363 147.436 254.511 147.254 254.597 147.063V148.363C254.389 148.606 254.09 148.796 253.7 148.935C253.319 149.065 252.925 149.13 252.517 149.13C251.937 149.13 251.412 148.996 250.944 148.727C250.476 148.458 250.104 148.09 249.826 147.622C249.558 147.145 249.423 146.608 249.423 146.01C249.423 145.403 249.558 144.866 249.826 144.398C250.104 143.93 250.476 143.562 250.944 143.293C251.412 143.024 251.937 142.89 252.517 142.89C252.925 142.89 253.319 142.959 253.7 143.098C254.09 143.228 254.389 143.414 254.597 143.657V144.957C254.511 144.758 254.363 144.576 254.155 144.411C253.947 144.246 253.7 144.116 253.414 144.021C253.137 143.917 252.838 143.865 252.517 143.865C252.127 143.865 251.776 143.956 251.464 144.138C251.161 144.32 250.918 144.576 250.736 144.905C250.563 145.226 250.476 145.594 250.476 146.01ZM261.221 144.06L256.281 149.455L256.346 147.96L261.286 142.565L261.221 144.06ZM257.321 143.02V148.025L256.281 149.455V143.02H257.321ZM261.286 142.565V149H260.246V143.995L261.286 142.565ZM268.305 144.06L263.365 149.455L263.43 147.96L268.37 142.565L268.305 144.06ZM264.405 143.02V148.025L263.365 149.455V143.02H264.405ZM268.37 142.565V149H267.33V143.995L268.37 142.565ZM263.846 139.965H264.769C264.769 140.078 264.8 140.212 264.86 140.368C264.921 140.515 265.034 140.65 265.198 140.771C265.363 140.884 265.597 140.94 265.9 140.94C266.204 140.94 266.438 140.884 266.602 140.771C266.767 140.65 266.88 140.515 266.94 140.368C267.001 140.212 267.031 140.078 267.031 139.965H267.954C267.954 140.26 267.876 140.55 267.72 140.836C267.573 141.113 267.348 141.343 267.044 141.525C266.741 141.698 266.36 141.785 265.9 141.785C265.45 141.785 265.068 141.698 264.756 141.525C264.453 141.343 264.223 141.113 264.067 140.836C263.92 140.55 263.846 140.26 263.846 139.965ZM270.852 146.01C270.852 146.426 270.939 146.794 271.112 147.115C271.294 147.436 271.537 147.691 271.84 147.882C272.152 148.064 272.503 148.155 272.893 148.155C273.214 148.155 273.513 148.107 273.79 148.012C274.076 147.908 274.323 147.774 274.531 147.609C274.739 147.436 274.887 147.254 274.973 147.063V148.363C274.765 148.606 274.466 148.796 274.076 148.935C273.695 149.065 273.301 149.13 272.893 149.13C272.313 149.13 271.788 148.996 271.32 148.727C270.852 148.458 270.48 148.09 270.202 147.622C269.934 147.145 269.799 146.608 269.799 146.01C269.799 145.403 269.934 144.866 270.202 144.398C270.48 143.93 270.852 143.562 271.32 143.293C271.788 143.024 272.313 142.89 272.893 142.89C273.301 142.89 273.695 142.959 274.076 143.098C274.466 143.228 274.765 143.414 274.973 143.657V144.957C274.887 144.758 274.739 144.576 274.531 144.411C274.323 144.246 274.076 144.116 273.79 144.021C273.513 143.917 273.214 143.865 272.893 143.865C272.503 143.865 272.152 143.956 271.84 144.138C271.537 144.32 271.294 144.576 271.112 144.905C270.939 145.226 270.852 145.594 270.852 146.01ZM276.527 143.02H277.567V149H276.527V143.02ZM279.777 143.02H281.077L278.477 145.49L281.337 149H280.037L277.177 145.49L279.777 143.02ZM287.323 144.06L282.383 149.455L282.448 147.96L287.388 142.565L287.323 144.06ZM283.423 143.02V148.025L282.383 149.455V143.02H283.423ZM287.388 142.565V149H286.348V143.995L287.388 142.565ZM294.407 144.06L289.467 149.455L289.532 147.96L294.472 142.565L294.407 144.06ZM290.507 143.02V148.025L289.467 149.455V143.02H290.507ZM294.472 142.565V149H293.432V143.995L294.472 142.565ZM289.948 139.965H290.871C290.871 140.078 290.901 140.212 290.962 140.368C291.022 140.515 291.135 140.65 291.3 140.771C291.464 140.884 291.698 140.94 292.002 140.94C292.305 140.94 292.539 140.884 292.704 140.771C292.868 140.65 292.981 140.515 293.042 140.368C293.102 140.212 293.133 140.078 293.133 139.965H294.056C294.056 140.26 293.978 140.55 293.822 140.836C293.674 141.113 293.449 141.343 293.146 141.525C292.842 141.698 292.461 141.785 292.002 141.785C291.551 141.785 291.17 141.698 290.858 141.525C290.554 141.343 290.325 141.113 290.169 140.836C290.021 140.55 289.948 140.26 289.948 139.965Z" fill="#E3D9C6" fill-opacity="0.7"/>
<path d="M99.2985 180.113C99.2747 180.1 99.2563 180.082 99.2431 180.059C96.8485 175.929 93.7543 172.289 91.2941 168.197C90.6089 167.057 90.0391 165.863 89.5845 164.614C87.3991 158.608 91.6134 152.223 97.7078 151.154C101.383 150.509 105.222 151.927 107.575 154.792C109.479 157.109 110.453 160.314 109.795 163.285C109.312 165.465 108.184 167.52 106.962 169.408C104.659 172.967 101.972 176.257 99.8365 179.923C99.6985 180.161 99.5541 180.246 99.2985 180.113ZM91.967 155.214C90.1684 157.367 89.2296 160.424 89.8917 163.238C90.4451 165.589 91.8169 167.913 93.1583 169.893C95.137 172.813 97.5348 175.918 99.4874 179.106C99.498 179.123 99.5083 179.123 99.5185 179.106C101.649 175.574 104.254 172.377 106.474 168.904C107.387 167.476 108.221 165.967 108.782 164.363C109.407 162.577 109.487 160.78 108.977 158.94C106.854 151.292 97.0692 149.107 91.967 155.214Z" fill="#E3D9C6"/>
<path d="M104.028 161.502C104.028 162.703 103.551 163.855 102.702 164.704C101.853 165.553 100.701 166.03 99.5005 166.03C98.2996 166.03 97.148 165.553 96.2988 164.704C95.4497 163.855 94.9727 162.703 94.9727 161.502C94.9727 160.302 95.4497 159.15 96.2988 158.301C97.148 157.452 98.2996 156.975 99.5005 156.975C100.701 156.975 101.853 157.452 102.702 158.301C103.551 159.15 104.028 160.302 104.028 161.502ZM103.345 161.501C103.345 160.481 102.94 159.503 102.219 158.782C101.498 158.061 100.52 157.656 99.5005 157.656C98.481 157.656 97.5032 158.061 96.7823 158.782C96.0614 159.503 95.6564 160.481 95.6564 161.501C95.6564 162.52 96.0614 163.498 96.7823 164.219C97.5032 164.94 98.481 165.345 99.5005 165.345C100.52 165.345 101.498 164.94 102.219 164.219C102.94 163.498 103.345 162.52 103.345 161.501Z" fill="#E3D9C6"/>
<rect x="0.5" y="0.5" width="349" height="349" stroke="#E3D9C6"/>
</svg>
