<svg width="16" height="24" viewBox="0 0 16 24" fill="none" xmlns="http://www.w3.org/2000/svg">
<path d="M7.39473 2.61626C7.39473 2.56942 7.38154 2.56113 7.35516 2.59141C5.24914 5.02154 3.15929 7.42939 1.08561 9.81496C0.357286 10.653 -0.42976 9.44221 0.275581 8.63074C2.70119 5.83844 5.12743 3.04756 7.55431 0.258111C7.97688 -0.227743 8.26987 0.0447469 8.64711 0.479188C10.9617 3.1441 13.2768 5.80845 15.5926 8.47222C15.7548 8.65816 15.908 8.8124 15.9724 9.08061C16.1116 9.65986 15.7005 10.2691 15.2614 10.0969C15.1614 10.0575 15.0273 9.94121 14.8592 9.74812C12.8111 7.38883 10.7402 5.00269 8.64647 2.5897C8.64092 2.58322 8.63393 2.57939 8.62658 2.57883C8.61924 2.57827 8.61196 2.58099 8.6059 2.58658C8.59983 2.59217 8.59532 2.60031 8.59308 2.60972C8.59083 2.61912 8.59098 2.62926 8.59349 2.63854C8.59903 2.66082 8.60371 2.67796 8.60754 2.68995C8.60839 2.69393 8.60882 2.6977 8.60881 2.70109C8.60881 9.42422 8.60881 16.1471 8.60881 22.8696C8.60881 23.1735 8.58817 23.3912 8.5469 23.5226C8.40072 23.9879 7.96794 24.1395 7.66347 23.8593C7.44133 23.6562 7.39473 23.3743 7.39537 22.9999C7.39835 16.1933 7.39814 9.3988 7.39473 2.61626Z" fill="#E3D9C6"/>
</svg>
