<svg width="11" height="9" viewBox="0 0 11 9" fill="none" xmlns="http://www.w3.org/2000/svg">
<path d="M9.48184 1.98835C9.50202 1.97395 9.50153 1.96572 9.48038 1.96367C7.78629 1.80355 6.10677 1.64356 4.44182 1.48368C3.85698 1.42758 4.13656 0.716397 4.7029 0.770765C6.65122 0.9572 8.59912 1.14435 10.5466 1.33221C10.8858 1.36487 10.8585 1.57483 10.7873 1.87086C10.3509 3.68696 9.91499 5.50316 9.47951 7.31945C9.44925 7.44644 9.42991 7.55984 9.3342 7.67005C9.12748 7.90805 8.7387 7.91826 8.67789 7.67616C8.66413 7.62097 8.673 7.5275 8.7045 7.39575C9.09112 5.78834 9.4823 4.16287 9.87805 2.51934C9.87914 2.51496 9.87864 2.51077 9.87662 2.50743C9.87461 2.5041 9.8712 2.5018 9.86692 2.50091C9.86265 2.50001 9.85776 2.50057 9.85302 2.5025C9.84828 2.50442 9.84396 2.5076 9.84073 2.51153C9.83284 2.52076 9.82689 2.52805 9.8229 2.53339C9.82145 2.53498 9.81996 2.53632 9.8185 2.53736C6.92269 4.60399 4.02701 6.67053 1.13144 8.73698C1.00054 8.8304 0.900452 8.88842 0.831172 8.91102C0.585828 8.99109 0.387469 8.8513 0.414564 8.63403C0.433755 8.47592 0.540856 8.36919 0.702341 8.25436C3.63499 6.16338 6.56149 4.07471 9.48184 1.98835Z" fill="#E3D9C6"/>
</svg>
