<svg width="19" height="25" viewBox="0 0 19 25" fill="none" xmlns="http://www.w3.org/2000/svg">
<path d="M5.61161 4.88761C5.79625 4.24597 5.98034 3.60024 6.16388 2.95044C6.30879 2.43661 6.42557 2.08578 6.51421 1.89795C7.00744 0.854344 8.04907 0.109707 9.20877 0.0119035C10.8275 -0.124243 12.2597 0.920473 12.6989 2.47977C12.9236 3.2759 13.1513 4.08352 13.3819 4.90262C13.3836 4.909 13.3874 4.91465 13.3927 4.91866C13.398 4.92268 13.4045 4.92486 13.4111 4.92485C14.3645 4.92596 15.3201 4.92596 16.2778 4.92485C16.5724 4.92448 16.7929 4.95004 16.9393 5.00153C17.5655 5.22214 17.7305 5.71116 17.7763 6.33243C18.1838 11.8428 18.5899 17.3533 18.9944 22.8639C19.0612 23.7697 18.5211 24.6544 17.6422 24.9117C17.4436 24.9699 17.0835 24.9991 16.562 24.9995C11.7058 25.0006 6.84947 24.9999 1.99295 24.9973C1.02138 24.9967 0.175613 24.3549 0.0183754 23.3819C-0.00847449 23.2155 -0.00589987 22.9143 0.0260993 22.4783C0.420756 17.1117 0.815412 11.7449 1.21007 6.378C1.23398 6.04903 1.27811 5.81045 1.34248 5.66226C1.58634 5.09878 2.06246 4.92429 2.655 4.92485C3.62123 4.92559 4.59021 4.92577 5.56196 4.9254C5.57325 4.92536 5.58421 4.92165 5.59317 4.91483C5.60213 4.90801 5.60861 4.89845 5.61161 4.88761ZM11.3985 2.12078C10.3376 0.425344 7.86921 0.852121 7.3153 2.77206C7.11079 3.48003 6.91181 4.17854 6.71834 4.86761C6.71689 4.87275 6.71664 4.87817 6.71762 4.88342C6.7186 4.88868 6.72079 4.89363 6.724 4.89789C6.72721 4.90215 6.73136 4.9056 6.73613 4.90796C6.74089 4.91033 6.74614 4.91154 6.75145 4.91151H12.2559C12.2594 4.91146 12.2629 4.9106 12.266 4.909C12.2692 4.90739 12.2719 4.90507 12.2741 4.90223C12.2762 4.89939 12.2776 4.89609 12.2783 4.8926C12.279 4.8891 12.2789 4.88549 12.2779 4.88206C12.1014 4.24559 11.9213 3.61265 11.7378 2.98323C11.6208 2.58239 11.5077 2.2949 11.3985 2.12078ZM16.7032 6.15183C16.6933 6.0218 16.5575 5.97512 16.4615 5.97567C13.088 5.99383 9.7145 5.99957 6.34097 5.9929C5.04114 5.99012 3.74021 5.97178 2.44921 5.99068C2.40796 5.99126 2.36843 6.00739 2.3384 6.03588C2.30837 6.06438 2.29004 6.10317 2.28701 6.14461C1.87506 11.7361 1.46404 17.3127 1.05393 22.8745C1.00152 23.5847 1.40758 23.9303 2.05639 23.9303C7.02031 23.9303 11.9842 23.9303 16.9482 23.9303C17.3873 23.9303 17.7459 23.7792 17.8899 23.3513C17.9348 23.2183 17.9462 23.0029 17.9241 22.705C17.5181 17.1869 17.1111 11.6692 16.7032 6.15183Z" fill="#E3D9C6"/>
</svg>
