<svg width="24" height="18" viewBox="0 0 24 18" fill="none" xmlns="http://www.w3.org/2000/svg">
<path d="M17.6124 12.6712C14.4107 12.6666 11.2084 12.6664 8.00553 12.6704C7.24431 12.6714 6.68464 12.6409 6.32652 12.5789C4.96488 12.3429 3.89585 11.7081 3.11946 10.6745C2.91707 10.4049 2.69584 10.0002 2.45578 9.46056C1.66983 7.69145 0.888932 5.92056 0.113097 4.14789C-0.273134 3.26741 0.378737 2.21296 1.32745 1.90548C1.55008 1.83325 1.8933 1.79714 2.35712 1.79714C8.12641 1.79612 13.896 1.79586 19.6658 1.79637C19.6786 1.79634 19.691 1.79271 19.7013 1.786C19.7116 1.77928 19.7193 1.76983 19.7232 1.75899C20.0391 0.870873 20.6702 0.31542 21.6164 0.0926289C21.9773 0.00793753 23.389 -0.0691251 23.7078 0.103309C24.1286 0.331442 24.0847 0.87545 23.642 1.05017C23.5475 1.08731 23.3915 1.10638 23.174 1.1074C21.9453 1.11426 21.102 1.04788 20.8583 2.34191C20.1904 5.88292 19.4854 9.42241 18.8402 12.9665C18.6421 14.056 17.9388 14.8777 16.7809 15.1677C16.4711 15.245 15.9444 15.2837 15.2006 15.2837C11.7695 15.2816 8.33836 15.2793 4.90725 15.2768C4.03781 15.276 3.96023 14.2185 4.92327 14.2025C6.26918 14.1791 7.6148 14.172 8.96015 14.1811C11.2851 14.1964 13.6109 14.1727 15.9368 14.1773C16.9285 14.1789 17.566 13.6135 17.6503 12.7086C17.6526 12.6837 17.6399 12.6712 17.6124 12.6712ZM4.00914 9.99236C4.68294 10.9644 5.84669 11.5389 7.10658 11.5756C7.13469 11.5766 7.16111 11.5834 7.18585 11.5962C7.2162 11.6119 7.24375 11.6198 7.26849 11.6198C10.7929 11.6198 14.3083 11.6198 17.8148 11.6198C17.8328 11.6198 17.8502 11.6141 17.8639 11.6036C17.8777 11.5932 17.8868 11.5786 17.8898 11.5626L19.5191 2.94161C19.5195 2.93912 19.5192 2.93659 19.5184 2.93419C19.5176 2.93179 19.5162 2.92958 19.5144 2.9277C19.5126 2.92582 19.5103 2.92431 19.5078 2.92329C19.5052 2.92227 19.5025 2.92175 19.4997 2.92178C13.6601 2.92178 7.84727 2.92178 2.06112 2.92178C1.28022 2.92178 1.07277 3.46578 1.32829 4.05023C2.06758 5.741 2.81165 7.43025 3.5605 9.11798C3.74715 9.53813 3.8967 9.82959 4.00914 9.99236Z" fill="#442F29"/>
<path d="M8.02641 17.7332C8.66448 17.7332 9.18173 17.2652 9.18173 16.6879C9.18173 16.1106 8.66448 15.6426 8.02641 15.6426C7.38835 15.6426 6.87109 16.1106 6.87109 16.6879C6.87109 17.2652 7.38835 17.7332 8.02641 17.7332Z" fill="#442F29"/>
<path d="M14.674 17.7316C15.3116 17.7316 15.8285 17.264 15.8285 16.6871C15.8285 16.1102 15.3116 15.6426 14.674 15.6426C14.0364 15.6426 13.5195 16.1102 13.5195 16.6871C13.5195 17.264 14.0364 17.7316 14.674 17.7316Z" fill="#442F29"/>
</svg>
