<svg width="22" height="15" viewBox="0 0 22 15" fill="none" xmlns="http://www.w3.org/2000/svg">
<path d="M6.59933 13.8941C4.49216 11.9169 2.39017 9.93474 0.293373 7.9475C0.166177 7.82711 0.0846415 7.72282 0.0487659 7.63463C-0.0815428 7.31714 0.147054 6.97992 0.497508 6.94086C0.711428 6.91735 0.855523 6.98832 1.01341 7.13782C3.02867 9.04359 5.04556 10.9478 7.06409 12.8505C7.07506 12.8609 7.08603 12.8609 7.097 12.8505C11.4314 8.75872 15.7645 4.66708 20.0963 0.575574C20.5619 0.135879 21.3175 0.659145 20.9987 1.19207C20.9684 1.24247 20.8983 1.3196 20.7883 1.42347C16.359 5.60652 11.9295 9.78929 7.49993 13.9718C7.32381 14.1381 7.13213 14.1867 6.92488 14.1175C6.83416 14.0873 6.72564 14.0128 6.59933 13.8941Z" fill="#442F29"/>
</svg>
