<svg width="17" height="17" viewBox="0 0 17 17" fill="none" xmlns="http://www.w3.org/2000/svg">
<path d="M16.7602 0.603252C16.998 0.851703 17.12 1.06425 16.8332 1.35105C14.5574 3.62777 12.2814 5.90448 10.0052 8.1812C9.71933 8.46677 9.88003 8.6936 10.1239 8.93716C12.3378 11.1516 14.5515 13.366 16.7651 15.5805C17.0584 15.8738 17.0796 16.0802 16.788 16.3707C16.6512 16.5067 16.5143 16.6428 16.3773 16.7791C16.1052 17.0499 15.8935 17.085 15.619 16.8101C13.3831 14.5739 11.1474 12.3377 8.91177 10.1015C8.59976 9.78899 8.40725 9.78123 8.10217 10.086C5.88177 12.305 3.66233 14.5248 1.44384 16.7452C1.14284 17.0463 0.9434 17.1034 0.631386 16.7925C0.473952 16.6353 0.317333 16.4772 0.161531 16.3181C-0.0721734 16.0794 -0.0403604 15.853 0.184371 15.6278C2.4605 13.3513 4.7365 11.0748 7.01236 8.79804C7.26197 8.54836 7.12779 8.31664 6.90958 8.09838C4.68729 5.87579 2.46513 3.65306 0.243103 1.4302C-0.0232301 1.1638 -0.106434 0.951654 0.176214 0.664038C0.342349 0.495141 0.510252 0.328147 0.679922 0.163058C0.925046 -0.0751937 1.15018 -0.0401085 1.37859 0.18876C4.80407 3.62002 7.07545 5.89061 8.19271 7.00055C8.44763 7.25389 8.68174 7.12865 8.90565 6.90468C11.1617 4.64754 13.418 2.39068 15.6745 0.134093C16.0734 -0.264897 16.5171 0.348682 16.7602 0.603252Z" fill="#E3D9C6"/>
</svg>
