<?xml version="1.0" encoding="UTF-8" standalone="no"?>
<svg
   width="27"
   height="26"
   viewBox="0 0 27 26"
   fill="none"
   version="1.1"
   id="svg8"
   sodipodi:docname="instagram.svg"
   inkscape:version="1.1.1 (3bf5ae0d25, 2021-09-20)"
   xmlns:inkscape="http://www.inkscape.org/namespaces/inkscape"
   xmlns:sodipodi="http://sodipodi.sourceforge.net/DTD/sodipodi-0.dtd"
   xmlns="http://www.w3.org/2000/svg"
   xmlns:svg="http://www.w3.org/2000/svg">
  <defs
     id="defs12" />
  <sodipodi:namedview
     id="namedview10"
     pagecolor="#ffffff"
     bordercolor="#666666"
     borderopacity="1.0"
     inkscape:pageshadow="2"
     inkscape:pageopacity="0.0"
     inkscape:pagecheckerboard="0"
     showgrid="false"
     inkscape:zoom="30.846154"
     inkscape:cx="13.502494"
     inkscape:cy="12.983791"
     inkscape:window-width="1920"
     inkscape:window-height="991"
     inkscape:window-x="-9"
     inkscape:window-y="-9"
     inkscape:window-maximized="1"
     inkscape:current-layer="svg8" />
  <path
     style="color:#000000;fill:#e3d9c6;-inkscape-stroke:none"
     d="M 5,0.5 C 2.5206427,0.5 0.5,2.5206427 0.5,5 v 16 c 0,2.479322 2.0206367,4.5 4.5,4.5 h 17.333984 c 2.479416,0 4.5,-2.020687 4.5,-4.5 V 5 c 0,-2.4793483 -2.02059,-4.5 -4.5,-4.5 z m 0,1 h 17.333984 c 1.938986,0 3.5,1.5610727 3.5,3.5 v 16 c 0,1.938882 -1.56102,3.5 -3.5,3.5 H 5 C 3.0610878,24.5 1.5,22.938873 1.5,21 V 5 C 1.5,3.0610817 3.0610817,1.5 5,1.5 Z"
     id="path2" />
  <path
     style="color:#000000;fill:#e3d9c6;-inkscape-stroke:none"
     d="m 13.443359,6.3320312 c -3.6759736,2e-7 -6.6660152,2.9900417 -6.6660153,6.6660158 -1e-7,3.675974 2.9900416,6.667969 6.6660153,6.667969 3.675975,0 6.667969,-2.991995 6.667969,-6.667969 0,-3.6759742 -2.991995,-6.6660159 -6.667969,-6.6660158 z m 0,1 c 3.135535,-1e-7 5.667969,2.5304811 5.667969,5.6660158 0,3.135535 -2.532434,5.667969 -5.667969,5.667969 -3.135534,0 -5.6660154,-2.532435 -5.6660153,-5.667969 10e-8,-3.1355345 2.5304813,-5.6660156 5.6660153,-5.6660158 z"
     id="circle4" />
  <path
     style="color:#000000;fill:#e3d9c6;-inkscape-stroke:none"
     d="m 21,3.6679688 c -0.975918,-7e-7 -1.777344,0.8014257 -1.777344,1.7773437 0,0.975918 0.801426,1.7773444 1.777344,1.7773437 0.975917,0 1.777344,-0.8014262 1.777344,-1.7773437 0,-0.9759174 -0.801427,-1.7773437 -1.777344,-1.7773437 z m 0,0.9999999 c 0.435478,10e-8 0.777344,0.3418659 0.777344,0.7773438 0,0.4354779 -0.341866,0.7773437 -0.777344,0.7773437 -0.435478,4e-7 -0.777344,-0.3418655 -0.777344,-0.7773437 0,-0.4354782 0.341866,-0.7773441 0.777344,-0.7773438 z"
     id="circle6" />
</svg>
