<svg width="17" height="11" viewBox="0 0 17 11" fill="none" xmlns="http://www.w3.org/2000/svg">
<path d="M15.1468 5.08388C15.18 5.08388 15.1859 5.07481 15.1644 5.05667C13.4431 3.60878 11.7375 2.17201 10.0477 0.746354C9.45413 0.245634 10.3118 -0.295459 10.8866 0.189463C12.8644 1.85707 14.8413 3.52511 16.8172 5.19359C17.1613 5.48411 16.9683 5.68553 16.6606 5.94489C14.7729 7.53614 12.8857 9.12782 10.9988 10.7199C10.8671 10.8314 10.7579 10.9367 10.5679 10.9811C10.1576 11.0767 9.72605 10.7941 9.84805 10.4922C9.87597 10.4234 9.95831 10.3313 10.0951 10.2157C11.7662 8.80761 13.4564 7.38386 15.1656 5.94445C15.1702 5.94064 15.1729 5.93583 15.1733 5.93078C15.1737 5.92573 15.1718 5.92072 15.1678 5.91655C15.1639 5.91239 15.1581 5.90929 15.1515 5.90774C15.1448 5.9062 15.1376 5.9063 15.131 5.90803C15.1153 5.91183 15.1031 5.91505 15.0946 5.91768C15.0918 5.91827 15.0891 5.91856 15.0867 5.91856C10.3245 5.91856 5.5625 5.91856 0.800688 5.91856C0.585421 5.91856 0.431252 5.90437 0.338184 5.87599C0.00860596 5.7755 -0.0988274 5.47796 0.0996494 5.26863C0.2435 5.11592 0.443188 5.08388 0.708429 5.08432C5.52972 5.08637 10.3425 5.08622 15.1468 5.08388Z" fill="#E3D9C6"/>
</svg>
