<svg width="22" height="22" viewBox="0 0 22 22" fill="none" xmlns="http://www.w3.org/2000/svg">
<path d="M17.8105 1.00592C16.9063 1.89697 16.0088 2.79424 15.1181 3.69775C14.0762 4.75438 15.1636 5.94289 15.8326 6.81709C16.155 7.23853 16.2637 7.52251 16.0984 8.02025C14.8144 11.8784 11.8406 14.8769 7.9906 16.1832C7.4964 16.3504 7.19927 16.3166 6.79906 16.0169C6.04411 15.4515 4.97536 14.4156 3.95714 14.9517C3.82003 15.0238 3.60931 15.2015 3.32499 15.4848C2.52591 16.2809 1.72818 17.0784 0.931795 17.8775C0.659933 18.1501 0.483576 18.3628 0.402725 18.5157C0.0732555 19.1403 0.240517 19.9847 0.789797 20.442C0.924887 20.5542 1.17536 20.7004 1.54121 20.8806C3.67618 21.9307 6.17751 21.817 8.41304 21.0989C12.2343 19.872 15.5522 17.3535 18.1121 14.2473C19.2488 12.8681 20.1442 11.4138 20.7984 9.88438C22.0339 6.99597 22.2669 3.58153 20.3512 0.927089C19.9353 0.351531 19.0374 0.196903 18.428 0.505148C18.2781 0.580946 18.0722 0.74787 17.8105 1.00592ZM18.3436 1.20754C18.7312 0.826025 19.2622 0.731531 19.7185 1.04129C19.8563 1.13494 20.0079 1.31821 20.1733 1.59108C21.9071 4.45573 21.3366 7.81156 19.8707 10.6489C18.0091 14.2524 14.9291 17.2449 11.4157 19.2333C8.47116 20.8993 4.45791 22.0545 1.28956 20.1611C0.607378 19.7533 0.586155 18.9513 1.12786 18.4111C2.04552 17.4955 2.96267 16.5792 3.87932 15.6622C4.2007 15.3413 4.49935 15.2261 4.95312 15.3888C6.08807 15.7946 6.62523 17.1883 8.13765 16.6754C12.0857 15.3363 15.1707 12.2912 16.531 8.34619C16.6922 7.87927 16.7538 7.51999 16.5937 7.08289C16.293 6.26174 14.5638 5.01259 15.4638 4.09443C16.4154 3.12388 17.3754 2.16158 18.3436 1.20754Z" fill="#E3D9C6"/>
<path d="M12.7001 1.05547C5.77473 -0.105757 -0.210773 5.8656 0.941354 12.7961C1.02271 13.2862 1.53258 13.1872 1.45577 12.7536C0.30516 6.23448 5.9804 0.497088 12.5091 1.54563C12.6481 1.56786 12.782 1.61081 12.9002 1.53704C13.0468 1.44557 13.0448 1.19493 12.8876 1.10751C12.8526 1.08797 12.7901 1.07063 12.7001 1.05547Z" fill="#E3D9C6"/>
<path d="M4.45778 9.06742C5.44922 5.81619 8.77422 3.78481 12.1113 4.35481C12.5697 4.43314 12.6323 3.91367 12.225 3.85101C10.4204 3.57241 8.75602 3.8815 7.23198 4.77827C4.58815 6.33415 3.20914 9.41104 3.75134 12.3995C3.81198 12.732 4.31225 12.6602 4.25313 12.2883C4.07593 11.1695 4.14415 10.0959 4.45778 9.06742Z" fill="#E3D9C6"/>
<path d="M11.7443 7.17139C11.9894 7.21737 12.1698 6.71812 11.6978 6.64384C8.61891 6.15772 6.04987 8.80609 6.53599 11.8335C6.60168 12.2453 7.09891 12.1493 7.04383 11.7966C6.61078 9.02844 8.93878 6.64434 11.7443 7.17139Z" fill="#E3D9C6"/>
</svg>
