<svg width="17" height="11" viewBox="0 0 17 11" fill="none" xmlns="http://www.w3.org/2000/svg">
<path d="M1.85319 5.91612C1.82 5.91612 1.81414 5.92519 1.83558 5.94333C3.55692 7.39122 5.26248 8.82799 6.95226 10.2536C7.54587 10.7544 6.68824 11.2955 6.11344 10.8105C4.13556 9.14293 2.15869 7.47489 0.182829 5.80641C-0.161318 5.5159 0.0316957 5.31447 0.339425 5.05511C2.22707 3.46386 4.11432 1.87218 6.00116 0.280058C6.13287 0.168591 6.24212 0.0632692 6.4321 0.0189461C6.8424 -0.0767217 7.27395 0.205893 7.15195 0.507817C7.12403 0.576569 7.04169 0.668726 6.90492 0.784288C5.23375 2.19239 3.54357 3.61614 1.83437 5.05555C1.82978 5.05936 1.82707 5.06417 1.82667 5.06922C1.82627 5.07427 1.8282 5.07928 1.83216 5.08345C1.83612 5.08761 1.84189 5.09071 1.84855 5.09226C1.85521 5.0938 1.86239 5.0937 1.86897 5.09197C1.88475 5.08817 1.89689 5.08495 1.90538 5.08232C1.9082 5.08173 1.91087 5.08144 1.91327 5.08144C6.67549 5.08144 11.4375 5.08144 16.1993 5.08144C16.4146 5.08144 16.5687 5.09563 16.6618 5.12401C16.9914 5.2245 17.0988 5.52204 16.9004 5.73137C16.7565 5.88408 16.5568 5.91612 16.2916 5.91568C11.4703 5.91363 6.65748 5.91378 1.85319 5.91612Z" fill="#E3D9C6"/>
</svg>
