<svg width="29" height="29" viewBox="0 0 29 29" fill="none" xmlns="http://www.w3.org/2000/svg">
<path d="M10.534 4.95298C10.1234 5.11724 9.84188 4.51345 10.3754 4.29935C17.1264 1.58796 24.6336 6.04954 25.4401 13.2859C25.8111 16.6153 24.6262 20.0132 22.232 22.3309C21.9528 22.6011 21.4651 22.1819 21.7863 21.8217C21.9094 21.6835 22.0332 21.5457 22.1578 21.4082C24.0779 19.2899 25.0165 16.5349 24.7967 13.6887C24.4682 9.44401 21.4736 5.73915 17.3689 4.57915C15.0655 3.92816 12.7872 4.05277 10.534 4.95298Z" fill="#E3D9C6"/>
<path d="M8.97956 4.96939L8.27493 5.42349C8.124 5.52076 8.0805 5.72196 8.17777 5.87289L8.19188 5.89479C8.28915 6.04572 8.49035 6.08922 8.64128 5.99196L9.34591 5.53785C9.49684 5.44059 9.54034 5.23938 9.44308 5.08845L9.42896 5.06655C9.3317 4.91562 9.13049 4.87212 8.97956 4.96939Z" fill="#E3D9C6"/>
<path d="M5.29588 23.781C6.201 23.4302 7.11216 23.0728 8.02936 22.7087C8.06146 22.6959 8.11224 22.6991 8.18172 22.7184C8.22439 22.7301 8.26876 22.7524 8.31483 22.7852C8.76644 23.1066 9.12517 23.341 9.391 23.4887C13.1389 25.5674 17.6486 25.2162 20.9984 22.5275C21.3892 22.2137 21.8321 22.7257 21.3875 23.0797C17.4883 26.1887 12.1568 26.3049 8.09053 23.449C8.0641 23.4305 8.03578 23.4271 8.00557 23.4388C6.98453 23.8433 5.96028 24.2467 4.93282 24.6493C4.54483 24.8016 4.26163 24.6073 4.40323 24.1831C4.76799 23.0907 5.13597 21.9951 5.50715 20.8962C5.50997 20.8876 5.51078 20.8785 5.5095 20.8696C5.50822 20.8606 5.5049 20.8521 5.49979 20.8447C2.36247 16.2783 2.94813 10.3622 6.94186 6.5033C7.31002 6.14759 7.77788 6.61375 7.40575 6.99607C7.1418 7.26681 6.8586 7.54379 6.62751 7.82076C3.74676 11.269 3.34631 16.0943 5.72295 19.9487C5.79243 20.0608 5.94196 20.2857 6.17155 20.6232C6.23442 20.7161 6.24801 20.83 6.21516 20.928C5.90099 21.8686 5.58456 22.8099 5.26586 23.7521C5.25529 23.7834 5.2653 23.793 5.29588 23.781Z" fill="#E3D9C6"/>
<path d="M11.6912 14.2221C12.6258 15.2727 13.6345 16.2079 14.777 17.0054C15.0993 17.2302 15.5133 17.471 15.8481 17.5429C16.9763 17.7853 16.8211 15.8046 18.1624 16.0685C19.0188 16.237 19.8106 16.5617 20.5379 17.0428C20.8658 17.2597 21.1666 17.4664 21.0947 17.8867C20.6925 20.2333 19.0256 21.2868 16.7045 20.5256C12.7906 19.2421 8.91071 16.5018 7.91893 12.26C7.52358 10.571 8.15286 8.7568 9.97838 8.3201C10.4915 8.19719 10.7204 8.37165 11.0211 8.7619C11.5445 9.4397 11.9699 10.1993 12.2973 11.0406C12.4791 11.5073 12.4978 11.8256 12.133 12.2034C11.8328 12.5149 11.0302 13.2291 11.2766 13.6534C11.3902 13.8494 11.5285 14.0389 11.6912 14.2221ZM8.61051 12.2323C9.59323 15.9774 12.807 18.3381 16.2961 19.6584C17.0233 19.9337 17.6662 20.1387 18.3623 20.0923C19.5875 20.0107 20.2281 18.9193 20.4178 17.8165C20.4193 17.8074 20.4184 17.798 20.415 17.7894C20.4116 17.7807 20.4059 17.773 20.3986 17.7672C19.7421 17.2603 18.8075 16.8683 18.0106 16.7131C17.8796 16.6874 17.7818 16.7244 17.7172 16.8241C17.2845 17.4891 16.9491 18.1337 16.1239 18.2232C15.6 18.2798 14.9882 17.9496 14.5527 17.6613C13.255 16.8026 12.0871 15.71 11.0823 14.5347C10.8527 14.2655 10.6987 14.0408 10.6201 13.8607C10.2418 12.9913 11.233 12.1932 11.7263 11.6234C11.7324 11.6164 11.7369 11.6083 11.7395 11.5994C11.7421 11.5905 11.7429 11.5811 11.7416 11.5718C11.731 11.4937 11.7082 11.4072 11.6731 11.3124C11.3563 10.4568 10.9158 9.691 10.3516 9.01509C10.3326 8.99235 10.3075 8.97545 10.2793 8.96633C10.251 8.95722 10.2208 8.95625 10.1919 8.96354C8.6479 9.3538 8.24348 10.8327 8.61051 12.2323Z" fill="#E3D9C6"/>
</svg>
