<?xml version="1.0" standalone="no"?>
<!DOCTYPE svg PUBLIC "-//W3C//DTD SVG 20010904//EN"
 "http://www.w3.org/TR/2001/REC-SVG-20010904/DTD/svg10.dtd">
<svg version="1.0" xmlns="http://www.w3.org/2000/svg"
 width="342.000000pt" height="342.000000pt" viewBox="0 0 342.000000 342.000000"
 preserveAspectRatio="xMidYMid meet">
<metadata>
Created by potrace 1.14, written by Peter Selinger 2001-2017
</metadata>
<g transform="translate(0.000000,342.000000) scale(0.100000,-0.100000)"
fill="#000000" stroke="none">
<path d="M0 1710 l0 -1710 1710 0 1710 0 0 1710 0 1710 -1710 0 -1710 0 0
-1710z m1970 665 c157 -26 241 -59 312 -123 34 -31 53 -39 111 -49 98 -16 190
-64 263 -137 82 -83 114 -141 122 -218 4 -51 10 -66 32 -85 112 -94 186 -325
161 -505 -13 -95 -44 -178 -78 -212 -22 -22 -34 -26 -87 -26 -100 0 -187 52
-251 148 -21 32 -34 42 -54 42 -42 0 -94 18 -130 44 l-33 24 -61 -49 c-89 -72
-149 -92 -272 -91 -94 0 -103 -2 -143 -28 -61 -40 -137 -55 -207 -40 -57 12
-165 61 -184 84 -10 11 -22 10 -74 -7 -46 -15 -89 -21 -167 -21 -92 -1 -115 3
-188 28 l-82 30 -58 -18 c-31 -10 -112 -40 -180 -67 -146 -59 -190 -62 -232
-21 -73 73 -55 307 39 507 21 45 41 107 45 137 19 154 133 267 320 318 59 16
62 19 96 79 117 207 325 286 725 276 88 -2 203 -11 255 -20z"/>
<path d="M1440 2339 c-172 -20 -311 -86 -375 -179 l-27 -40 74 -79 c238 -252
366 -511 385 -774 l6 -88 50 -29 c53 -30 162 -56 195 -46 14 5 21 19 25 54 9
75 54 216 110 347 53 123 242 509 319 648 l43 79 -23 19 c-34 27 -170 68 -282
85 -104 15 -377 17 -500 3z"/>
<path d="M2196 2081 c-183 -329 -374 -771 -393 -908 -6 -48 -1 -51 45 -23 30
19 32 23 32 79 0 150 127 458 337 814 68 116 82 157 54 157 -5 0 -39 -54 -75
-119z"/>
<path d="M2260 2063 c-152 -252 -314 -608 -344 -756 -23 -111 -18 -124 55
-132 78 -9 151 2 191 28 18 13 52 58 80 107 92 160 226 320 388 464 67 60 100
97 100 111 0 51 -124 191 -206 233 -49 25 -139 52 -173 52 -22 0 -35 -15 -91
-107z"/>
<path d="M1012 2070 c-6 -11 -12 -24 -12 -30 0 -6 33 -52 74 -103 170 -211
305 -445 361 -629 15 -49 30 -88 33 -88 11 0 -9 159 -29 230 -53 192 -203 435
-371 597 -41 41 -44 42 -56 23z"/>
<path d="M868 1991 c-139 -45 -248 -157 -248 -255 0 -32 4 -38 48 -60 169 -86
297 -243 335 -412 13 -58 13 -58 68 -78 75 -27 232 -29 308 -2 l53 18 -6 40
c-9 57 -69 208 -122 308 -60 112 -155 254 -249 368 -85 103 -88 104 -187 73z"/>
<path d="M2637 1743 c-94 -85 -187 -185 -258 -278 -46 -60 -129 -190 -129
-202 0 -20 57 52 88 112 28 55 65 99 171 205 75 75 157 155 184 177 44 39 59
63 38 63 -5 0 -47 -35 -94 -77z"/>
<path d="M2637 1671 c-56 -48 -124 -112 -151 -142 -53 -61 -136 -181 -136
-198 0 -21 81 -70 128 -76 74 -10 80 -14 107 -59 13 -23 35 -52 49 -65 l24
-22 63 56 c35 32 97 93 137 137 62 69 72 85 72 117 0 47 -25 131 -57 195 -24
48 -108 146 -124 146 -5 0 -55 -40 -112 -89z"/>
<path d="M615 1663 c6 -5 39 -30 75 -55 83 -58 157 -136 221 -235 54 -83 57
-67 5 32 -37 71 -141 178 -216 222 -59 34 -102 53 -85 36z"/>
<path d="M561 1560 c-34 -78 -71 -201 -71 -240 0 -16 14 -39 42 -65 22 -22 52
-64 65 -92 14 -29 27 -53 31 -53 11 0 306 113 315 121 11 9 -34 98 -89 175
-59 84 -217 224 -252 224 -5 0 -23 -32 -41 -70z"/>
<path d="M2805 1210 l-119 -119 37 -16 c37 -15 103 -20 132 -9 22 9 51 69 63
134 17 89 21 130 14 130 -4 0 -61 -54 -127 -120z"/>
<path d="M484 1198 c4 -29 15 -64 25 -78 21 -29 68 -39 77 -17 11 29 -67 147
-97 147 -8 0 -10 -15 -5 -52z"/>
</g>
</svg>
